<?xml version="1.0" standalone="no"?>
<!DOCTYPE svg PUBLIC "-//W3C//DTD SVG 20010904//EN"
 "http://www.w3.org/TR/2001/REC-SVG-20010904/DTD/svg10.dtd">
<svg version="1.0" xmlns="http://www.w3.org/2000/svg"
 width="260.000000pt" height="260.000000pt" viewBox="0 0 260.000000 260.000000"
 preserveAspectRatio="xMidYMid meet">
<metadata>
Created by potrace 1.14, written by Peter Selinger 2001-2017
</metadata>
<g transform="translate(0.000000,260.000000) scale(0.100000,-0.100000)"
fill="#000000" stroke="none">
<path d="M1300 2473 c-8 -3 -119 -66 -247 -139 -128 -74 -247 -142 -265 -153
-187 -106 -429 -247 -451 -263 -61 -44 -60 -31 -60 -618 0 -294 3 -555 7 -580
6 -45 43 -99 69 -101 7 -1 22 -3 34 -4 13 -1 31 4 40 11 17 12 18 51 19 584 0
480 3 573 15 584 8 8 115 72 239 144 124 71 302 173 395 227 94 54 184 106
200 115 166 95 169 98 138 150 -25 43 -84 62 -133 43z"/>
<path d="M1690 2221 c-36 -18 -78 -42 -485 -276 -412 -237 -475 -275 -493
-302 -16 -25 -17 -74 -20 -588 -2 -609 -2 -619 51 -659 28 -21 91 -26 108 -9
5 5 9 255 9 579 0 313 4 575 9 582 6 10 136 92 146 92 2 0 65 36 155 90 8 5
138 80 289 167 151 87 295 170 320 186 25 15 54 30 64 33 28 10 22 61 -12 95
-35 35 -86 38 -141 10z"/>
<path d="M2090 1953 c-36 -18 -78 -41 -95 -50 -16 -10 -198 -115 -403 -233
-205 -118 -387 -228 -404 -245 -63 -61 -62 -48 -63 -625 -1 -289 2 -544 7
-568 24 -131 124 -144 298 -37 19 12 60 35 90 52 30 16 152 86 270 154 118 69
265 154 327 189 141 80 171 107 193 176 10 30 13 154 12 549 -1 281 -4 528 -8
550 -13 81 -64 128 -134 122 -14 -1 -54 -16 -90 -34z"/>
</g>
</svg>
