<svg width="849" height="1130" viewBox="0 0 849 1130" fill="none" xmlns="http://www.w3.org/2000/svg">
<g opacity="0.2">
<path fill-rule="evenodd" clip-rule="evenodd" d="M416.762 9.85406C345.6 30.4256 298.02 121.17 238.63 184.009C177.703 248.474 61.8838 269.703 64.8745 382.177C68.3215 511.811 234.412 509.699 250.677 637.078C271.361 799.058 84.139 974.709 156.317 1098.28C220.94 1208.91 331.596 993.391 416.762 921.412C459.221 885.527 485.828 824.34 526.945 785.035C572.789 741.211 629.442 734.973 669.561 679.751C741.631 580.549 852.129 490.501 847.983 343.136C844.076 204.232 734.017 127.633 652.252 64.4386C579.744 8.39893 496.721 -13.2606 416.762 9.85406Z" stroke="#FFBF84"/>
<path fill-rule="evenodd" clip-rule="evenodd" d="M365.609 9.85398C294.447 30.4255 246.867 121.17 187.478 184.009C126.55 248.474 10.7311 269.703 13.7218 382.177C17.1687 511.811 183.259 509.699 199.524 637.078C220.208 799.058 32.986 974.709 105.164 1098.28C169.787 1208.91 280.443 993.391 365.609 921.412C408.068 885.527 434.675 824.34 475.792 785.035C521.636 741.21 578.289 734.973 618.408 679.751C690.478 580.549 800.976 490.5 796.831 343.136C792.923 204.232 682.864 127.633 601.099 64.4384C528.592 8.39879 445.568 -13.2607 365.609 9.85398Z" stroke="#FFBF84"/>
<path fill-rule="evenodd" clip-rule="evenodd" d="M403.974 9.8541C332.812 30.4256 285.232 121.17 225.842 184.009C164.915 248.474 49.0957 269.703 52.0863 382.177C55.5332 511.811 221.623 509.699 237.889 637.078C258.573 799.058 71.3506 974.709 143.528 1098.28C208.151 1208.91 318.808 993.391 403.974 921.412C446.432 885.527 473.04 824.34 514.157 785.035C560.001 741.211 616.654 734.973 656.773 679.751C728.843 580.549 839.341 490.501 835.195 343.136C831.288 204.232 721.228 127.633 639.464 64.4386C566.956 8.39891 483.933 -13.2606 403.974 9.8541Z" stroke="#FFBF84"/>
<path fill-rule="evenodd" clip-rule="evenodd" d="M352.821 9.8541C281.659 30.4256 234.079 121.17 174.689 184.009C113.762 248.474 -2.05734 269.703 0.933318 382.177C4.38023 511.811 170.47 509.699 186.736 637.078C207.42 799.058 20.1975 974.709 92.3751 1098.28C156.998 1208.91 267.655 993.391 352.821 921.412C395.279 885.527 421.887 824.34 463.004 785.035C508.848 741.211 565.501 734.973 605.62 679.751C677.69 580.549 788.188 490.501 784.042 343.136C780.135 204.232 670.075 127.633 588.311 64.4386C515.803 8.39891 432.78 -13.2606 352.821 9.8541Z" stroke="#FFBF84"/>
<path fill-rule="evenodd" clip-rule="evenodd" d="M391.186 9.85426C320.024 30.4258 272.444 121.17 213.054 184.009C152.127 248.474 36.3076 269.703 39.2982 382.178C42.7451 511.811 208.835 509.7 225.101 637.078C245.785 799.058 58.5622 974.709 130.74 1098.28C195.363 1208.91 306.019 993.391 391.186 921.412C433.644 885.528 460.252 824.34 501.369 785.035C547.213 741.211 603.866 734.973 643.985 679.751C716.055 580.549 826.553 490.501 822.407 343.136C818.5 204.232 708.44 127.633 626.676 64.4386C554.168 8.39901 471.145 -13.2604 391.186 9.85426Z" stroke="#FFBF84"/>
<path fill-rule="evenodd" clip-rule="evenodd" d="M378.397 9.85406C307.236 30.4256 259.655 121.17 200.266 184.009C139.339 248.474 23.5194 269.703 26.5101 382.177C29.957 511.811 196.047 509.699 212.313 637.078C232.997 799.058 45.7745 974.709 117.952 1098.28C182.575 1208.91 293.232 993.391 378.398 921.412C420.856 885.527 447.464 824.34 488.581 785.035C534.425 741.211 591.078 734.973 631.197 679.751C703.267 580.549 813.765 490.501 809.619 343.136C805.711 204.232 695.652 127.633 613.887 64.4386C541.38 8.39893 458.357 -13.2606 378.397 9.85406Z" stroke="#FFBF84"/>
</g>
</svg>
