<svg width="32" height="40" viewBox="0 0 32 40" fill="none" xmlns="http://www.w3.org/2000/svg">
<path d="M15.4295 0.0101807C7.46091 0.289027 0.840946 6.48925 0.076155 14.4036C-0.0800926 15.9864 0.0103667 17.5201 0.289968 18.9881C0.289968 18.9881 0.314638 19.1604 0.396874 19.4884C0.643581 20.5874 1.01364 21.6536 1.47416 22.6541C3.07775 26.4432 6.78658 32.7828 15.1088 39.6801C15.6187 40.1066 16.367 40.1066 16.8851 39.6801C25.2073 32.791 28.9162 26.4514 30.528 22.6459C30.9967 21.6454 31.3586 20.5874 31.6053 19.4802C31.6793 19.1604 31.7122 18.9799 31.7122 18.9799C31.9013 17.9958 32 16.987 32 15.9536C32 6.94853 24.5248 -0.309672 15.4295 0.0101807ZM15.997 23.8925C11.7043 23.8925 8.2257 20.4234 8.2257 16.1423C8.2257 11.8611 11.7043 8.39197 15.997 8.39197C20.2897 8.39197 23.7682 11.8611 23.7682 16.1423C23.7682 20.4234 20.2897 23.8925 15.997 23.8925Z" fill="#34599F"/>
</svg>
