<svg width="14" height="13" viewBox="0 0 14 13" fill="none" xmlns="http://www.w3.org/2000/svg">
<path fill-rule="evenodd" clip-rule="evenodd" d="M7.2546 0.257037C7.33587 0.17556 7.43242 0.110916 7.53871 0.0668097C7.645 0.0227029 7.75895 0 7.87403 0C7.98911 0 8.10306 0.0227029 8.20936 0.0668097C8.31565 0.110916 8.4122 0.17556 8.49347 0.257037L13.7429 5.5065C13.8244 5.58778 13.8891 5.68432 13.9332 5.79062C13.9773 5.89691 14 6.01086 14 6.12594C14 6.24102 13.9773 6.35497 13.9332 6.46126C13.8891 6.56756 13.8244 6.66411 13.7429 6.74538L8.49347 11.9948C8.32919 12.1591 8.10637 12.2514 7.87403 12.2514C7.6417 12.2514 7.41888 12.1591 7.2546 11.9948C7.09031 11.8306 6.99802 11.6077 6.99802 11.3754C6.99802 11.1431 7.09031 10.9203 7.2546 10.756L11.8864 6.12594L7.2546 1.49591C7.17312 1.41464 7.10848 1.31809 7.06437 1.2118C7.02026 1.10551 6.99756 0.991556 6.99756 0.876475C6.99756 0.761394 7.02026 0.647443 7.06437 0.54115C7.10848 0.434857 7.17312 0.338309 7.2546 0.257037Z" fill="#DB5147"/>
<path fill-rule="evenodd" clip-rule="evenodd" d="M0 6.12589C0 5.89385 0.0921781 5.67131 0.256256 5.50723C0.420333 5.34315 0.64287 5.25098 0.874911 5.25098H12.2488C12.4808 5.25098 12.7033 5.34315 12.8674 5.50723C13.0315 5.67131 13.1237 5.89385 13.1237 6.12589C13.1237 6.35793 13.0315 6.58047 12.8674 6.74454C12.7033 6.90862 12.4808 7.0008 12.2488 7.0008H0.874911C0.64287 7.0008 0.420333 6.90862 0.256256 6.74454C0.0921781 6.58047 0 6.35793 0 6.12589Z" fill="#DB5147"/>
</svg>
