<svg width="30" height="30" viewBox="0 0 30 30" fill="none" xmlns="http://www.w3.org/2000/svg">
<path fill-rule="evenodd" clip-rule="evenodd" d="M14.9996 29.4001C22.9525 29.4001 29.3996 22.953 29.3996 15.0001C29.3996 7.0472 22.9525 0.600098 14.9996 0.600098C7.04671 0.600098 0.599609 7.0472 0.599609 15.0001C0.599609 22.953 7.04671 29.4001 14.9996 29.4001ZM15.9996 7.8001C15.9996 7.24781 15.5519 6.8001 14.9996 6.8001C14.4473 6.8001 13.9996 7.24781 13.9996 7.8001V15.0001C13.9996 15.2653 14.105 15.5197 14.2925 15.7072L19.3837 20.7984C19.7742 21.1889 20.4074 21.1889 20.7979 20.7984C21.1884 20.4078 21.1884 19.7747 20.7979 19.3842L15.9996 14.5859V7.8001Z" fill="#34599F"/>
</svg>
