<svg width="32" height="32" viewBox="0 0 32 32" fill="none" xmlns="http://www.w3.org/2000/svg">
<path d="M30.4375 0H1.5625C0.700938 0 0 0.700938 0 1.5625V23.6263C0 24.4879 0.700938 25.1888 1.5625 25.1888H11.8836V30.125H10.7659C10.2482 30.125 9.82844 30.5448 9.82844 31.0625C9.82844 31.5802 10.2482 32 10.7659 32H21.2341C21.7518 32 22.1716 31.5802 22.1716 31.0625C22.1716 30.5448 21.7518 30.125 21.2341 30.125H20.1164V25.1888H30.4375C31.2991 25.1888 32 24.4879 32 23.6263C32 23.1705 32 2.22594 32 1.5625C32 0.700938 31.2991 0 30.4375 0ZM18.2414 30.125H13.7586V25.1888H18.2414V30.125ZM30.125 23.3138C28.9421 23.3138 3.71419 23.3138 1.875 23.3138V19.8806H30.125V23.3138ZM30.125 18.0056H1.875V1.875H30.125V18.0056Z" fill="white"/>
<path d="M5.35596 14.7944H13.0226C13.5404 14.7944 13.9601 14.3747 13.9601 13.8569C13.9601 13.3392 13.5404 12.9194 13.0226 12.9194H5.35596C4.83821 12.9194 4.41846 13.3392 4.41846 13.8569C4.41846 14.3747 4.83821 14.7944 5.35596 14.7944Z" fill="white"/>
<path d="M5.35596 6.96106H13.0226C13.5404 6.96106 13.9601 6.54131 13.9601 6.02356C13.9601 5.50581 13.5404 5.08606 13.0226 5.08606H5.35596C4.83821 5.08606 4.41846 5.50581 4.41846 6.02356C4.41846 6.54131 4.83821 6.96106 5.35596 6.96106Z" fill="white"/>
<path d="M5.35596 10.8778H13.0226C13.5404 10.8778 13.9601 10.4581 13.9601 9.94031C13.9601 9.42256 13.5404 9.00281 13.0226 9.00281H5.35596C4.83821 9.00281 4.41846 9.42256 4.41846 9.94031C4.41846 10.4581 4.83821 10.8778 5.35596 10.8778Z" fill="white"/>
<path d="M17.8174 14.7944H26.6443C27.1621 14.7944 27.5818 14.3747 27.5818 13.8569V6.02356C27.5818 5.50581 27.1621 5.08606 26.6443 5.08606H17.8174C17.2996 5.08606 16.8799 5.50581 16.8799 6.02356V13.8569C16.8799 14.3747 17.2996 14.7944 17.8174 14.7944ZM18.7549 6.96106H25.7068V12.9194H18.7549V6.96106Z" fill="white"/>
</svg>
