<svg width="40" height="40" viewBox="0 0 40 40" fill="none" xmlns="http://www.w3.org/2000/svg">
<g>
<path d="M21.3333 10.6665C20.5973 10.6665 20 11.2638 20 11.9998C20 12.7358 20.5973 13.3332 21.3333 13.3332C24.2747 13.3332 26.6667 15.7252 26.6667 18.6665C26.6667 19.4025 27.264 19.9998 28 19.9998C28.736 19.9998 29.3333 19.4025 29.3333 18.6665C29.3333 14.2558 25.744 10.6665 21.3333 10.6665Z" fill="#34599F"/>
<path d="M21.3333 5.3335C20.5973 5.3335 20 5.93083 20 6.66683C20 7.40283 20.5973 8.00016 21.3333 8.00016C27.216 8.00016 32 12.7842 32 18.6668C32 19.4028 32.5973 20.0002 33.3333 20.0002C34.0693 20.0002 34.6667 19.4028 34.6667 18.6668C34.6667 11.3148 28.6853 5.3335 21.3333 5.3335Z" fill="#34599F"/>
<path d="M21.3333 0C20.5973 0 20 0.597333 20 1.33333C20 2.06933 20.5973 2.66667 21.3333 2.66667C30.1573 2.66667 37.3333 9.84267 37.3333 18.6667C37.3333 19.4027 37.9307 20 38.6667 20C39.4027 20 40 19.4027 40 18.6667C40 8.37333 31.624 0 21.3333 0Z" fill="#34599F"/>
<path d="M36 29.3337C32.128 29.3337 28.44 28.491 25.04 26.8297C24.72 26.6697 24.352 26.651 24.0187 26.7683C23.6827 26.8857 23.408 27.131 23.2533 27.4483L21.1573 31.787C15.7333 28.7603 11.2427 24.2723 8.21867 18.8483L12.5547 16.747C12.8747 16.5923 13.1173 16.3177 13.2347 15.9817C13.3493 15.6483 13.328 15.2803 13.1707 14.9603C11.5093 11.5603 10.6667 7.87233 10.6667 4.00033C10.6667 3.26433 10.0693 2.66699 9.33333 2.66699H1.33333C0.597333 2.66699 0 3.26433 0 4.00033C0 23.851 16.1493 40.0003 36 40.0003C36.736 40.0003 37.3333 39.403 37.3333 38.667V30.667C37.3333 29.931 36.736 29.3337 36 29.3337Z" fill="#34599F"/>
</g>

</svg>
