<svg width="32" height="32" viewBox="0 0 32 32" fill="none" xmlns="http://www.w3.org/2000/svg">
<g >
<path d="M30.6456 0.0526278L0.710624 9.83419C-0.13478 10.1104 -0.257036 11.2604 0.51237 11.7077L11.8251 18.2858C12.182 18.4934 12.628 18.4684 12.9594 18.2222L16.1394 15.8606L13.7778 19.0407C13.5317 19.3721 13.5067 19.8182 13.7142 20.175L20.2923 31.4877C20.7402 32.2578 21.8899 32.1342 22.1659 31.2895L31.9475 1.35454C32.2099 0.550748 31.4454 -0.208916 30.6456 0.0526278ZM20.9189 28.4584L15.8408 19.7253L21.9641 11.48C22.2692 11.069 22.2272 10.4966 21.8653 10.1346C21.5034 9.77271 20.9308 9.73065 20.5199 10.0358L12.2746 16.1592L3.54161 11.081L29.3532 2.64677L20.9189 28.4584ZM10.8379 22.6218L3.98398 29.4757C3.58089 29.8787 2.92729 29.8789 2.5242 29.4757C2.12105 29.0726 2.12105 28.419 2.5242 28.0159L9.37814 21.1621C9.78136 20.759 10.435 20.7589 10.8379 21.1621C11.2411 21.5651 11.2411 22.2187 10.8379 22.6218ZM1.78331 22.8812C1.38016 22.478 1.38016 21.8245 1.78331 21.4214L4.48778 18.7169C4.89087 18.3137 5.54447 18.3137 5.94756 18.7169C6.35072 19.12 6.35072 19.7736 5.94756 20.1767L3.24309 22.8812C2.84007 23.2842 2.1864 23.2843 1.78331 22.8812ZM13.2831 26.0524C13.6863 26.4554 13.6863 27.109 13.2831 27.5121L10.5786 30.2166C10.377 30.4182 10.1128 30.519 9.84872 30.519C8.93731 30.519 8.46674 29.4089 9.11886 28.7568L11.8234 26.0524C12.2264 25.6492 12.88 25.6492 13.2831 26.0524Z" fill="white"/>
</g>

</svg>
