<svg width="26" height="34" viewBox="0 0 26 34" fill="none" xmlns="http://www.w3.org/2000/svg">
<path fill-rule="evenodd" clip-rule="evenodd" d="M0.400391 4.39995C0.400391 2.08036 2.28079 0.199951 4.60039 0.199951H14.2305C15.3445 0.199951 16.4127 0.64245 17.2004 1.4301L24.3702 8.59995C25.1579 9.3876 25.6004 10.4559 25.6004 11.5698V29.5999C25.6004 31.9195 23.72 33.7999 21.4004 33.7999H4.60039C2.28079 33.7999 0.400391 31.9195 0.400391 29.5999V4.39995ZM4.60039 17C4.60039 15.8402 5.54059 14.9 6.70039 14.9H19.3004C20.4602 14.9 21.4004 15.8402 21.4004 17C21.4004 18.1597 20.4602 19.1 19.3004 19.1H6.70039C5.54059 19.1 4.60039 18.1597 4.60039 17ZM6.70039 23.2999C5.54059 23.2999 4.60039 24.2402 4.60039 25.4C4.60039 26.5597 5.54059 27.5 6.70039 27.5H19.3004C20.4602 27.5 21.4004 26.5597 21.4004 25.4C21.4004 24.2402 20.4602 23.2999 19.3004 23.2999H6.70039Z" fill="white"/>
</svg>
