<svg width="40" height="32" viewBox="0 0 40 32" fill="none" xmlns="http://www.w3.org/2000/svg">
<path d="M3.83921 9.9736C4.34521 10.3307 5.87046 11.3911 8.41505 13.1544C10.9597 14.9178 12.9091 16.2755 14.2633 17.2276C14.4121 17.332 14.7282 17.5589 15.2117 17.9086C15.6954 18.2586 16.0972 18.5413 16.417 18.757C16.737 18.9727 17.1238 19.2146 17.5779 19.4823C18.0318 19.7499 18.4597 19.9511 18.8615 20.0843C19.2634 20.2187 19.6354 20.2852 19.9776 20.2852H20H20.0225C20.3647 20.2852 20.7369 20.2186 21.1387 20.0843C21.5403 19.9511 21.9686 19.7496 22.4222 19.4823C22.8759 19.2143 23.2628 18.9726 23.5828 18.757C23.9028 18.5413 24.3043 18.2586 24.7881 17.9086C25.2716 17.5586 25.5881 17.332 25.7368 17.2276C27.1057 16.2755 30.5881 13.8572 36.1831 9.97313C37.2694 9.21453 38.1769 8.29917 38.906 7.22769C39.6356 6.15667 40 5.03312 40 3.85765C40 2.87537 39.6464 2.03452 38.9395 1.33518C38.2326 0.635685 37.3954 0.286133 36.4285 0.286133H3.57128C2.42552 0.286133 1.54378 0.672978 0.926223 1.44667C0.308741 2.22051 0 3.18778 0 4.3484C0 5.28588 0.409362 6.30178 1.22769 7.39547C2.04595 8.48924 2.91674 9.34869 3.83921 9.9736Z" fill="#34599F"/>
<path d="M37.7675 12.3613C32.8871 15.6646 29.1813 18.2318 26.6519 20.0623C25.8037 20.6871 25.1156 21.1748 24.5871 21.5243C24.0587 21.874 23.3559 22.2311 22.4778 22.5955C21.6 22.9605 20.7819 23.1424 20.0228 23.1424H20H19.9776C19.2187 23.1424 18.4001 22.9605 17.5223 22.5955C16.6445 22.2311 15.9412 21.874 15.413 21.5243C14.8848 21.1748 14.1965 20.6871 13.3484 20.0623C11.3394 18.5892 7.64151 16.0219 2.25469 12.3613C1.40626 11.7962 0.654774 11.1485 0 10.4194V28.1421C0 29.1249 0.349552 29.9653 1.04905 30.6647C1.74838 31.3643 2.58931 31.714 3.57151 31.714H36.4287C37.4107 31.714 38.2516 31.3643 38.951 30.6647C39.6506 29.965 40 29.125 40 28.1421V10.4194C39.36 11.1334 38.6162 11.7811 37.7675 12.3613Z" fill="#34599F"/>
</svg>
