<svg width="28" height="28" viewBox="0 0 28 28" fill="none" xmlns="http://www.w3.org/2000/svg">
	<g>
		<path d="M22.1667 0H5.83333C4.28681 0.0018525 2.80415 0.617029 1.71059 1.71059C0.617029 2.80415 0.0018525 4.28681 0 5.83333L0 22.1667C0.0018525 23.7132 0.617029 25.1959 1.71059 26.2894C2.80415 27.383 4.28681 27.9981 5.83333 28H22.1667C23.7132 27.9981 25.1959 27.383 26.2894 26.2894C27.383 25.1959 27.9981 23.7132 28 22.1667V5.83333C27.9981 4.28681 27.383 2.80415 26.2894 1.71059C25.1959 0.617029 23.7132 0.0018525 22.1667 0V0ZM18.6667 12.8333H15.1667V9.33333H18.6667V12.8333ZM21 9.33333H25.6667V12.8333H21V9.33333ZM15.1667 7V2.33333H18.6667V7H15.1667ZM12.8333 7H9.33333V2.33333H12.8333V7ZM12.8333 9.33333V12.8333H9.33333V9.33333H12.8333ZM7 12.8333H2.33333V9.33333H7V12.8333ZM2.33333 15.1667H7V18.6667H2.33333V15.1667ZM9.33333 15.1667H12.8333V18.6667H9.33333V15.1667ZM12.8333 21V25.6667H9.33333V21H12.8333ZM15.1667 21H18.6667V25.6667H15.1667V21ZM15.1667 18.6667V15.1667H18.6667V18.6667H15.1667ZM21 15.1667H25.6667V18.6667H21V15.1667ZM25.6667 5.83333V7H21V2.33333H22.1667C23.0949 2.33333 23.9852 2.70208 24.6415 3.35846C25.2979 4.01484 25.6667 4.90508 25.6667 5.83333ZM5.83333 2.33333H7V7H2.33333V5.83333C2.33333 4.90508 2.70208 4.01484 3.35846 3.35846C4.01484 2.70208 4.90508 2.33333 5.83333 2.33333ZM2.33333 22.1667V21H7V25.6667H5.83333C4.90508 25.6667 4.01484 25.2979 3.35846 24.6415C2.70208 23.9852 2.33333 23.0949 2.33333 22.1667ZM22.1667 25.6667H21V21H25.6667V22.1667C25.6667 23.0949 25.2979 23.9852 24.6415 24.6415C23.9852 25.2979 23.0949 25.6667 22.1667 25.6667Z" fill="white" />
	</g>
</svg>
