<svg width="30" height="30" viewBox="0 0 30 30" fill="none" xmlns="http://www.w3.org/2000/svg">
<path d="M16.2724 1.12731C15.5695 0.424362 14.4298 0.424362 13.7268 1.12731L1.12682 13.7273C0.423873 14.4302 0.423873 15.5699 1.12682 16.2729C1.82976 16.9758 2.96946 16.9758 3.6724 16.2729L4.19961 15.7457V27.6001C4.19961 28.5942 5.0055 29.4001 5.99961 29.4001H9.59961C10.5937 29.4001 11.3996 28.5942 11.3996 27.6001V24.0001C11.3996 23.006 12.2055 22.2001 13.1996 22.2001H16.7996C17.7937 22.2001 18.5996 23.006 18.5996 24.0001V27.6001C18.5996 28.5942 19.4055 29.4001 20.3996 29.4001H23.9996C24.9937 29.4001 25.7996 28.5942 25.7996 27.6001V15.7457L26.3268 16.2729C27.0298 16.9758 28.1695 16.9758 28.8724 16.2729C29.5753 15.5699 29.5753 14.4302 28.8724 13.7273L16.2724 1.12731Z" fill="#34599F"/>
</svg>
