<svg width="34" height="34" viewBox="0 0 34 34" fill="none" xmlns="http://www.w3.org/2000/svg">
<path d="M19.1002 2.29995C19.1002 1.14015 18.16 0.199951 17.0002 0.199951C15.8404 0.199951 14.9002 1.14015 14.9002 2.29995V4.39995C14.9002 5.55975 15.8404 6.49995 17.0002 6.49995C18.16 6.49995 19.1002 5.55975 19.1002 4.39995V2.29995Z" fill="white"/>
<path d="M28.8795 8.09029C29.6996 7.27019 29.6996 5.94055 28.8795 5.12045C28.0594 4.30035 26.7298 4.30035 25.9097 5.12045L24.4247 6.60537C23.6046 7.42547 23.6046 8.75512 24.4247 9.57522C25.2448 10.3953 26.5745 10.3953 27.3946 9.57522L28.8795 8.09029Z" fill="white"/>
<path d="M33.8002 17C33.8002 18.1597 32.86 19.1 31.7002 19.1H29.6002C28.4404 19.1 27.5002 18.1597 27.5002 17C27.5002 15.8402 28.4404 14.9 29.6002 14.9H31.7002C32.86 14.9 33.8002 15.8402 33.8002 17Z" fill="white"/>
<path d="M6.60559 9.57526C7.42569 10.3954 8.75534 10.3954 9.57544 9.57526C10.3955 8.75516 10.3955 7.42551 9.57544 6.60541L8.09051 5.12048C7.27041 4.30038 5.94077 4.30038 5.12067 5.12048C4.30057 5.94058 4.30057 7.27023 5.12067 8.09033L6.60559 9.57526Z" fill="white"/>
<path d="M6.5002 17C6.5002 18.1597 5.55999 19.1 4.4002 19.1H2.3002C1.1404 19.1 0.200195 18.1597 0.200195 17C0.200195 15.8402 1.1404 14.9 2.3002 14.9H4.4002C5.55999 14.9 6.5002 15.8402 6.5002 17Z" fill="white"/>
<path d="M12.8002 29.5999V27.5H21.2002V29.5999C21.2002 31.9195 19.3198 33.7999 17.0002 33.7999C14.6806 33.7999 12.8002 31.9195 12.8002 29.5999Z" fill="white"/>
<path d="M21.2021 25.4C21.2327 24.6853 21.6361 24.0427 22.2015 23.5963C24.1498 22.058 25.4002 19.675 25.4002 17C25.4002 12.3608 21.6394 8.59995 17.0002 8.59995C12.361 8.59995 8.60019 12.3608 8.60019 17C8.60019 19.675 9.85063 22.058 11.7989 23.5963C12.3642 24.0427 12.7677 24.6853 12.7983 25.4H21.2021Z" fill="white"/>
</svg>
