<svg width="24" height="24" viewBox="0 0 24 24" fill="none" xmlns="http://www.w3.org/2000/svg">
<g>
<path d="M22.485 10.975L12 17.267L1.515 10.975C1.28758 10.8386 1.01526 10.7981 0.757962 10.8624C0.500662 10.9267 0.279453 11.0906 0.143 11.318C0.00654566 11.5455 -0.0339759 11.8178 0.030349 12.0751C0.094674 12.3324 0.258576 12.5536 0.486 12.69L11.486 19.29C11.6415 19.3835 11.8196 19.4328 12.001 19.4328C12.1824 19.4328 12.3605 19.3835 12.516 19.29L23.516 12.69C23.7434 12.5536 23.9073 12.3324 23.9717 12.0751C24.036 11.8178 23.9955 11.5455 23.859 11.318C23.7225 11.0906 23.5013 10.9267 23.244 10.8624C22.9867 10.7981 22.7144 10.8386 22.487 10.975H22.485Z" fill="#2A2D30"/>
<path d="M22.485 15.5431L12 21.8341L1.515 15.5431C1.40239 15.4756 1.27757 15.4309 1.14768 15.4115C1.01779 15.3922 0.885361 15.3986 0.757959 15.4305C0.630557 15.4623 0.510676 15.519 0.40516 15.5972C0.299645 15.6753 0.210562 15.7735 0.142997 15.8861C0.0754315 15.9988 0.0307078 16.1236 0.0113792 16.2535C-0.00794938 16.3834 -0.00150444 16.5158 0.0303461 16.6432C0.094671 16.9005 0.258573 17.1217 0.485997 17.2581L11.486 23.8581C11.6415 23.9516 11.8196 24.001 12.001 24.001C12.1824 24.001 12.3605 23.9516 12.516 23.8581L23.516 17.2581C23.7434 17.1217 23.9073 16.9005 23.9716 16.6432C24.036 16.3859 23.9954 16.1136 23.859 15.8861C23.7225 15.6587 23.5013 15.4948 23.244 15.4305C22.9867 15.3662 22.7144 15.4067 22.487 15.5431H22.485Z" fill="#2A2D30"/>
<path d="M12.0002 14.7731C11.4608 14.7728 10.9316 14.6259 10.4692 14.3481L0.485172 8.35706C0.33732 8.26815 0.214983 8.14251 0.130053 7.99234C0.0451225 7.84217 0.000488281 7.67258 0.000488281 7.50006C0.000488281 7.32753 0.0451225 7.15794 0.130053 7.00777C0.214983 6.8576 0.33732 6.73196 0.485172 6.64306L10.4692 0.652056C10.9315 0.374285 11.4608 0.227539 12.0002 0.227539C12.5396 0.227539 13.0688 0.374285 13.5312 0.652056L23.5152 6.64306C23.663 6.73196 23.7854 6.8576 23.8703 7.00777C23.9552 7.15794 23.9999 7.32753 23.9999 7.50006C23.9999 7.67258 23.9552 7.84217 23.8703 7.99234C23.7854 8.14251 23.663 8.26815 23.5152 8.35706L13.5312 14.3481C13.0688 14.6259 12.5396 14.7728 12.0002 14.7731ZM2.94417 7.50006L11.5002 12.6331C11.6513 12.7235 11.8241 12.7712 12.0002 12.7712C12.1763 12.7712 12.3491 12.7235 12.5002 12.6331L21.0562 7.50006L12.5002 2.36706C12.3491 2.27666 12.1763 2.22892 12.0002 2.22892C11.8241 2.22892 11.6513 2.27666 11.5002 2.36706L2.94417 7.50006Z" fill="#2A2D30"/>
</g>

</svg>
