<svg width="24" height="24" viewBox="0 0 24 24" fill="none" xmlns="http://www.w3.org/2000/svg">
<g >
<path d="M12.0001 16C12.4657 16.0009 12.9252 15.8934 13.3421 15.686L15.3421 14.686C15.8417 14.4379 16.2619 14.0547 16.555 13.58C16.848 13.1052 17.0022 12.5579 17.0001 12V9.03299C17.0018 8.47558 16.8474 7.92882 16.5543 7.45464C16.2613 6.98045 15.8414 6.59779 15.3421 6.34999L13.3421 5.34999C12.9252 5.14281 12.466 5.03499 12.0006 5.03499C11.5351 5.03499 11.0759 5.14281 10.6591 5.34999L8.65906 6.34999C8.15956 6.59765 7.73941 6.98025 7.4462 7.45445C7.15298 7.92864 6.99843 8.47547 7.00006 9.03299V12C6.99827 12.5576 7.15263 13.1045 7.44566 13.5788C7.73868 14.0532 8.15867 14.436 8.65806 14.684L10.6581 15.684C11.0748 15.8921 11.5343 16.0003 12.0001 16ZM9.00006 12V9.03299C9.00165 8.93098 9.01885 8.82981 9.05105 8.73299L11.2311 9.82299C11.4698 9.94234 11.7331 10.0045 12.0001 10.0045C12.267 10.0045 12.5303 9.94234 12.7691 9.82299L14.9491 8.73299C14.9813 8.82981 14.9985 8.93098 15.0001 9.03299V12C15.0008 12.186 14.9494 12.3684 14.8517 12.5267C14.7539 12.6849 14.6137 12.8125 14.4471 12.895L12.4471 13.895C12.3079 13.9638 12.1548 13.9997 11.9996 13.9997C11.8443 13.9997 11.6912 13.9638 11.5521 13.895L9.55206 12.895C9.38557 12.8123 9.24559 12.6847 9.14802 12.5265C9.05044 12.3683 8.99918 12.1859 9.00006 12ZM19.0001 22H16.2911L19.7781 18.778C21.3177 17.2384 22.3658 15.2766 22.7896 13.141C23.2134 11.0053 22.9939 8.79191 22.1589 6.7811C21.3239 4.77028 19.9109 3.0525 18.0989 1.8453C16.287 0.638097 14.1575 -0.00421337 11.9802 -0.000287284C9.80287 0.0036388 7.67572 0.653624 5.8681 1.86735C4.06047 3.08108 2.6537 4.80395 1.82595 6.81776C0.998192 8.83158 0.786686 11.0457 1.21822 13.1799C1.64975 15.314 2.70491 17.272 4.25006 18.806L7.70906 22H5.00006C4.73484 22 4.48049 22.1053 4.29295 22.2929C4.10541 22.4804 4.00006 22.7348 4.00006 23C4.00006 23.2652 4.10541 23.5196 4.29295 23.7071C4.48049 23.8946 4.73484 24 5.00006 24H19.0001C19.2653 24 19.5196 23.8946 19.7072 23.7071C19.8947 23.5196 20.0001 23.2652 20.0001 23C20.0001 22.7348 19.8947 22.4804 19.7072 22.2929C19.5196 22.1053 19.2653 22 19.0001 22ZM5.63606 4.63599C7.32018 2.94431 9.60735 1.99093 11.9944 1.98558C14.3815 1.98024 16.6729 2.92337 18.3646 4.60749C20.0562 6.29162 21.0096 8.57878 21.015 10.9658C21.0203 13.3529 20.0772 15.6443 18.3931 17.336L14.4081 21.017C13.7531 21.6343 12.8862 21.9767 11.9862 21.9736C11.0861 21.9704 10.2217 21.6219 9.57106 21L5.63606 17.364C3.95065 15.6749 3.00411 13.3862 3.00411 11C3.00411 8.61384 3.95065 6.32512 5.63606 4.63599Z" fill="#2A2D30"/>
</g>

</svg>
