<svg width="17" height="18" viewBox="0 0 17 18" fill="none" xmlns="http://www.w3.org/2000/svg">
<path d="M11.4099 12.425L12.8099 11.025C12.9984 10.8388 13.237 10.7113 13.4966 10.6581C13.7562 10.6048 14.0257 10.6281 14.2724 10.725L15.9786 11.4063C16.2279 11.5074 16.4416 11.6801 16.5929 11.9026C16.7441 12.125 16.8262 12.3873 16.8286 12.6563V15.7813C16.8272 15.9643 16.7887 16.1451 16.7156 16.3128C16.6424 16.4805 16.536 16.6317 16.4029 16.7573C16.2698 16.8828 16.1126 16.9801 15.9409 17.0433C15.7691 17.1065 15.5864 17.1343 15.4036 17.125C3.44739 16.3813 1.03489 6.25627 0.578636 2.38128C0.557456 2.19099 0.576808 1.99837 0.635416 1.81609C0.694025 1.63382 0.790562 1.46602 0.918678 1.32374C1.04679 1.18145 1.20358 1.0679 1.37873 0.990565C1.55388 0.913227 1.74342 0.873851 1.93489 0.875026H4.95364C5.22302 0.875823 5.486 0.957193 5.70876 1.10867C5.93152 1.26015 6.10387 1.4748 6.20364 1.72503L6.88489 3.43128C6.98504 3.67694 7.0106 3.94668 6.95835 4.20678C6.90611 4.46689 6.77839 4.70584 6.59114 4.89378L5.19114 6.29378C5.19114 6.29378 5.99739 11.75 11.4099 12.425Z" fill="#D22619"/>
</svg>
