<svg width="66" height="66" viewBox="0 0 66 66" fill="none" xmlns="http://www.w3.org/2000/svg">
<path fill-rule="evenodd" clip-rule="evenodd" d="M33.0002 65.7999C51.1151 65.7999 65.8002 51.1149 65.8002 33C65.8002 14.885 51.1151 0.199951 33.0002 0.199951C14.8853 0.199951 0.200195 14.885 0.200195 33C0.200195 51.1149 14.8853 65.7999 33.0002 65.7999ZM31.1745 21.3885C29.9164 20.5498 28.2987 20.4716 26.9656 21.1851C25.6324 21.8986 24.8002 23.2879 24.8002 24.8V41.2C24.8002 42.712 25.6324 44.1013 26.9656 44.8148C28.2987 45.5283 29.9164 45.4501 31.1745 44.6114L43.4745 36.4114C44.6151 35.651 45.3002 34.3708 45.3002 33C45.3002 31.6291 44.6151 30.349 43.4745 29.5886L31.1745 21.3885Z" fill="white"/>
</svg>
