<svg width="34" height="35" viewBox="0 0 34 35" fill="none" xmlns="http://www.w3.org/2000/svg">
<path fill-rule="evenodd" clip-rule="evenodd" d="M0.549021 6.49759C6.86638 6.41188 12.6223 4.00159 17.0002 0.083252C21.3781 4.00158 27.134 6.41188 33.4514 6.49759C33.6808 7.86422 33.8002 9.26814 33.8002 10.7C33.8002 21.6721 26.7878 31.0065 17.0002 34.4659C7.21258 31.0065 0.200195 21.6721 0.200195 10.7C0.200195 9.26814 0.319609 7.86421 0.549021 6.49759ZM24.7851 14.2848C25.6052 13.4647 25.6052 12.1351 24.7851 11.315C23.965 10.4949 22.6354 10.4949 21.8153 11.315L14.9002 18.23L12.1851 15.515C11.365 14.6949 10.0354 14.6949 9.21527 15.515C8.39517 16.3351 8.39517 17.6647 9.21527 18.4848L13.4153 22.6848C14.2354 23.5049 15.565 23.5049 16.3851 22.6848L24.7851 14.2848Z" fill="white"/>
</svg>
