<svg width="30" height="30" viewBox="0 0 30 30" fill="none" xmlns="http://www.w3.org/2000/svg">
<path d="M7.95284 4.2001H6.08984C6.29732 3.18367 6.84961 2.27014 7.65323 1.61412C8.45685 0.958103 9.46246 0.599886 10.4998 0.600098H22.1998C24.1094 0.600098 25.9407 1.35867 27.291 2.70893C28.6413 4.05919 29.3998 5.89054 29.3998 7.8001V19.5001C29.4001 20.5375 29.0418 21.5431 28.3858 22.3467C27.7298 23.1503 26.8163 23.7026 25.7998 23.9101V22.0471C26.3265 21.8609 26.7824 21.5159 27.1048 21.0598C27.4272 20.6036 27.6001 20.0587 27.5998 19.5001V7.8001C27.5998 6.36793 27.0309 4.99442 26.0182 3.98172C25.0055 2.96902 23.632 2.4001 22.1998 2.4001H10.4998C9.94126 2.3998 9.39633 2.57277 8.94016 2.89515C8.48399 3.21753 8.13904 3.67346 7.95284 4.2001Z" fill="#34599F"/>
<path d="M0.599609 10.5C0.599609 9.30653 1.07372 8.16193 1.91763 7.31802C2.76154 6.47411 3.90614 6 5.09961 6H19.4996C20.6931 6 21.8377 6.47411 22.6816 7.31802C23.5255 8.16193 23.9996 9.30653 23.9996 10.5V24.9C23.9996 26.0935 23.5255 27.2381 22.6816 28.082C21.8377 28.9259 20.6931 29.4 19.4996 29.4H5.09961C3.90614 29.4 2.76154 28.9259 1.91763 28.082C1.07372 27.2381 0.599609 26.0935 0.599609 24.9V10.5Z" fill="#34599F"/>
</svg>
