<svg width="24" height="24" viewBox="0 0 24 24" fill="none" xmlns="http://www.w3.org/2000/svg">
<g>
<path d="M15.7825 1.00354L7.60978 1.00354C6.65961 1.02644 5.7547 1.4141 5.08263 2.08617C4.41057 2.75823 4.0229 3.66315 4 4.61332C3.9998 5.08751 4.09306 5.55709 4.27443 5.99522C4.45581 6.43335 4.72175 6.83145 5.05705 7.16675C5.39236 7.50206 5.79045 7.768 6.22858 7.94937C6.66672 8.13074 7.1363 8.224 7.61049 8.2238L10.6963 8.2238V16.5592L7.60978 16.5599C6.65961 16.5828 5.7547 16.9705 5.08263 17.6425C4.41057 18.3146 4.0229 19.2195 4 20.1697C3.99981 20.6439 4.09306 21.1134 4.27443 21.5516C4.45581 21.9897 4.72175 22.3878 5.05705 22.7231C5.39236 23.0584 5.79045 23.3243 6.22858 23.5057C6.66672 23.6871 7.1363 23.7803 7.61049 23.7802C7.61049 23.7802 9.49122 23.7802 10.6963 23.7802L15.7825 23.7794C16.2566 23.7795 16.726 23.6862 17.164 23.5049C17.602 23.3235 18 23.0576 18.3352 22.7224C18.6705 22.3872 18.9364 21.9892 19.1177 21.5512C19.2991 21.1132 19.3924 20.6437 19.3923 20.1697C19.3925 19.6956 19.2993 19.226 19.118 18.788C18.9367 18.3499 18.6708 17.9519 18.3355 17.6166C18.0003 17.2814 17.6023 17.0155 17.1642 16.8342C16.7261 16.6529 16.2566 16.5597 15.7825 16.5599L12.6967 16.5599L12.7002 8.21956L15.7861 8.21956C16.2601 8.21966 16.7296 8.12636 17.1676 7.94499C17.6056 7.76362 18.0036 7.49773 18.3388 7.16251C18.674 6.82729 18.9399 6.42931 19.1213 5.99131C19.3026 5.5533 19.3959 5.08385 19.3958 4.60978C19.3961 4.13567 19.3029 3.66617 19.1215 3.2281C18.9402 2.79004 18.6743 2.392 18.3391 2.05676C18.0038 1.72151 17.6058 1.45563 17.1677 1.2743C16.7297 1.09298 16.2602 0.999766 15.7861 1L15.7825 1.00354ZM16.9217 19.0312C17.0715 19.1804 17.1903 19.3579 17.2711 19.5533C17.3519 19.7487 17.3932 19.9582 17.3926 20.1697C17.3832 20.5937 17.2105 20.9978 16.9106 21.2978C16.6107 21.5977 16.2066 21.7703 15.7825 21.7797H7.60978C7.18276 21.7797 6.77323 21.6101 6.47128 21.3082C6.16933 21.0062 5.9997 20.5967 5.9997 20.1697C5.9997 19.7426 6.16933 19.3331 6.47128 19.0312C6.77323 18.7292 7.18276 18.5596 7.60978 18.5596L15.7825 18.5596C15.9942 18.559 16.2038 18.6003 16.3993 18.6813C16.5949 18.7622 16.7724 18.8812 16.9217 19.0312ZM17.3926 4.61332C17.3832 5.03738 17.2105 5.44147 16.9106 5.74141C16.6107 6.04134 16.2066 6.21399 15.7825 6.2234H7.60978C7.39834 6.2234 7.18897 6.18175 6.99363 6.10084C6.79829 6.01992 6.62079 5.90133 6.47128 5.75182C6.32177 5.60231 6.20317 5.42481 6.12226 5.22947C6.04134 5.03412 5.9997 4.82475 5.9997 4.61332C5.9997 4.40188 6.04134 4.19251 6.12226 3.99716C6.20317 3.80182 6.32177 3.62433 6.47128 3.47482C6.62079 3.32531 6.79829 3.20671 6.99363 3.12579C7.18897 3.04488 7.39834 3.00323 7.60978 3.00323L15.7825 3.00323C15.994 3.00309 16.2034 3.04464 16.3988 3.1255C16.5942 3.20637 16.7718 3.32496 16.9213 3.4745C17.0709 3.62404 17.1895 3.80159 17.2703 3.997C17.3512 4.1924 17.3927 4.40184 17.3926 4.61332Z" fill="#2A2D30"/>
<path d="M10.5 17.2802C10.5 16.7279 10.9477 16.2802 11.5 16.2802C12.0523 16.2802 12.5 16.7279 12.5 17.2802V18.2802C12.5 18.8324 12.0523 19.2802 11.5 19.2802C10.9477 19.2802 10.5 18.8324 10.5 18.2802V17.2802Z" fill="#2A2D30"/>
</g>
</svg>
