<svg width="24" height="24" viewBox="0 0 24 24" fill="none" xmlns="http://www.w3.org/2000/svg">
<g >
<path fill-rule="evenodd" clip-rule="evenodd" d="M8.1495 3.45567C7.25412 4.07662 6.5226 4.90536 6.01762 5.87091C5.51264 6.83646 5.24924 7.91004 5.25 8.99967C5.25 11.3967 6.498 13.5027 8.385 14.7027C9.162 15.1947 9.7785 16.0872 9.738 17.1627V17.1747L9.492 22.1802C9.4873 22.3295 9.45292 22.4763 9.39086 22.6122C9.3288 22.7481 9.2403 22.8702 9.13054 22.9715C9.02077 23.0728 8.89193 23.1512 8.75153 23.2022C8.61114 23.2532 8.46199 23.2757 8.3128 23.2684C8.16361 23.2612 8.01736 23.2243 7.88259 23.1599C7.74781 23.0955 7.62721 23.0049 7.52781 22.8934C7.42841 22.7819 7.35222 22.6517 7.30366 22.5105C7.2551 22.3692 7.23516 22.2197 7.245 22.0707L7.4895 17.0757C7.4925 16.9482 7.4145 16.7517 7.179 16.6017C5.89795 15.7897 4.84304 14.6669 4.11239 13.3378C3.38175 12.0087 2.99909 10.5164 3 8.99967C2.99944 7.55027 3.3493 6.12223 4.01975 4.83722C4.6902 3.55222 5.66137 2.44834 6.8505 1.61967C7.21405 1.358 7.64817 1.21227 8.09597 1.20156C8.54377 1.19086 8.98436 1.31568 9.36 1.55967C10.053 2.00367 10.5 2.80017 10.5 3.69417V7.92417C10.5 8.04717 10.5615 8.16417 10.665 8.23317L11.79 8.99817C11.852 9.04008 11.9252 9.06248 12 9.06248C12.0749 9.06248 12.148 9.04008 12.21 8.99817L13.335 8.23317C13.3858 8.19884 13.4274 8.15259 13.4562 8.09846C13.4849 8.04433 13.5 7.98397 13.5 7.92267V3.69417C13.5 2.80017 13.947 2.00367 14.64 1.55967C15.0156 1.31568 15.4562 1.19086 15.904 1.20156C16.3518 1.21227 16.7859 1.358 17.1495 1.61967C18.3386 2.44834 19.3098 3.55222 19.9803 4.83722C20.6507 6.12223 21.0006 7.55027 21 8.99967C21.0009 10.5164 20.6183 12.0087 19.8876 13.3378C19.157 14.6669 18.1021 15.7897 16.821 16.6017C16.5855 16.7517 16.5075 16.9467 16.5105 17.0742L16.755 22.0692C16.7646 22.218 16.7445 22.3673 16.6959 22.5084C16.6473 22.6494 16.5711 22.7794 16.4718 22.8907C16.3725 23.002 16.2521 23.0924 16.1175 23.1568C15.9829 23.2211 15.8368 23.258 15.6879 23.2654C15.5389 23.2727 15.3899 23.2504 15.2496 23.1996C15.1093 23.1489 14.9805 23.0707 14.8708 22.9698C14.761 22.8688 14.6723 22.747 14.6101 22.6114C14.5478 22.4758 14.5131 22.3293 14.508 22.1802L14.262 17.1627C14.2215 16.0872 14.838 15.1947 15.615 14.7027C16.5762 14.0937 17.3678 13.2515 17.9159 12.2543C18.4641 11.2572 18.751 10.1376 18.75 8.99967C18.7508 7.91004 18.4874 6.83646 17.9824 5.87091C17.4774 4.90536 16.7459 4.07662 15.8505 3.45567C15.8145 3.48117 15.75 3.55617 15.75 3.69567V7.92267C15.75 8.35111 15.6452 8.77304 15.4447 9.15164C15.2441 9.53025 14.954 9.85401 14.5995 10.0947L13.4745 10.8597C13.0395 11.155 12.5258 11.3129 12 11.3129C11.4742 11.3129 10.9605 11.155 10.5255 10.8597L9.4005 10.0947C9.04604 9.85401 8.75588 9.53025 8.55533 9.15164C8.35479 8.77304 8.24996 8.35111 8.25 7.92267V3.69417C8.25 3.55617 8.1855 3.48117 8.1495 3.45567Z" fill="#34599F"/>
</g>

</svg>
