<svg width="32" height="28" viewBox="0 0 32 28" fill="none" xmlns="http://www.w3.org/2000/svg">
<path d="M30.06 6.78579C29.7165 5.49243 28.7045 4.47382 27.4195 4.12814C25.0903 3.5 15.7507 3.5 15.7507 3.5C15.7507 3.5 6.4112 3.5 4.08201 4.12814C2.79702 4.47387 1.78497 5.49243 1.44148 6.78579C0.817383 9.13008 0.817383 14.0212 0.817383 14.0212C0.817383 14.0212 0.817383 18.9124 1.44148 21.2566C1.78497 22.55 2.79702 23.5262 4.08201 23.8719C6.4112 24.5 15.7507 24.5 15.7507 24.5C15.7507 24.5 25.0903 24.5 27.4195 23.8719C28.7045 23.5262 29.7165 22.55 30.06 21.2566C30.6841 18.9124 30.6841 14.0212 30.6841 14.0212C30.6841 14.0212 30.6841 9.13008 30.06 6.78579ZM12.6962 18.462V9.58043L20.5022 14.0213L12.6962 18.462Z" fill="#808388"/>
</svg>
