<?xml version="1.0"?>
<svg xmlns="http://www.w3.org/2000/svg" xmlns:xlink="http://www.w3.org/1999/xlink" version="1.1" xml:space="preserve">
	<defs>

        <symbol id="loader" width="100%" height="100%" viewBox="22 22 44 44">
            <circle cx="44" cy="44" r="20.2" fill="none" stroke="currentColor" stroke-width="4"></circle>
        </symbol>

        <symbol id="burger" width="100%" height="100%" viewBox="0 0 48 48">
            <path d="M41,14H7a2,2,0,0,1,0-4H41A2,2,0,0,1,41,14Z" fill="currentColor"/>
            <path d="M41,26H7a2,2,0,0,1,0-4H41A2,2,0,0,1,41,26Z" fill="currentColor"/>
            <path d="M41,38H7a2,2,0,0,1,0-4H41A2,2,0,0,1,41,38Z" fill="currentColor"/>
        </symbol>

        <symbol id="close" width="100%" height="100%" viewBox="0 0 16 16">
            <path d="M1 15L15 1M1 1L15 15" stroke="currentColor" stroke-width="2" stroke-linecap="round" stroke-linejoin="round"/>
        </symbol>

        <symbol id="success" width="100%" height="100%" viewBox="0 0 68 68">
            <path fill-rule="evenodd" clip-rule="evenodd" d="M34 68C52.7777 68 68 52.7777 68 34C68 15.2223 52.7777 0 34 0C15.2223 0 0 15.2223 0 34C0 52.7777 15.2223 68 34 68ZM49.7552 28.5052C51.4149 26.8455 51.4149 24.1545 49.7552 22.4948C48.0955 20.8351 45.4045 20.8351 43.7448 22.4948L29.75 36.4896L24.2552 30.9948C22.5955 29.3351 19.9045 29.3351 18.2448 30.9948C16.5851 32.6545 16.5851 35.3455 18.2448 37.0052L26.7448 45.5052C28.4045 47.1649 31.0955 47.1649 32.7552 45.5052L49.7552 28.5052Z" fill="currentColor"/>
        </symbol>

        <symbol id="arrow-left" width="100%" height="100%" viewBox="0 0 11 18">
            <path d="M3.76777 9L9.88388 2.88388C10.372 2.39573 10.372 1.60427 9.88388 1.11612C9.39573 0.627961 8.60427 0.627961 8.11612 1.11612L1.11612 8.11612C0.62796 8.60427 0.62796 9.39573 1.11612 9.88388L8.11612 16.8839C8.60427 17.372 9.39573 17.372 9.88388 16.8839C10.372 16.3957 10.372 15.6043 9.88388 15.1161L3.76777 9Z" fill="currentColor"/>
        </symbol>

        <symbol id="arrow-right" width="100%" height="100%" viewBox="0 0 11 18">
            <path d="M7.23223 9L1.11612 2.88388C0.627961 2.39573 0.627961 1.60427 1.11612 1.11612C1.60427 0.627961 2.39573 0.627961 2.88388 1.11612L9.88388 8.11612C10.372 8.60427 10.372 9.39573 9.88388 9.88388L2.88388 16.8839C2.39573 17.372 1.60427 17.372 1.11612 16.8839C0.627961 16.3957 0.627961 15.6043 1.11612 15.1161L7.23223 9Z" fill="currentColor"/>
        </symbol>

        <symbol id="tel" width="100%" height="100%" viewBox="0 0 20 20">
            <path d="M12.7063 13.425L14.1063 12.025C14.2948 11.8388 14.5334 11.7113 14.793 11.6581C15.0526 11.6048 15.3221 11.6281 15.5688 11.725L17.275 12.4063C17.5243 12.5074 17.738 12.6801 17.8893 12.9026C18.0405 13.125 18.1226 13.3873 18.125 13.6563V16.7813C18.1236 16.9643 18.0851 17.1451 18.0119 17.3128C17.9388 17.4805 17.8324 17.6317 17.6993 17.7573C17.5662 17.8828 17.409 17.9801 17.2373 18.0433C17.0655 18.1065 16.8828 18.1343 16.7 18.125C4.74377 17.3813 2.33127 7.25627 1.87502 3.38128C1.85384 3.19099 1.87319 2.99837 1.9318 2.81609C1.99041 2.63382 2.08695 2.46602 2.21506 2.32374C2.34318 2.18145 2.49997 2.0679 2.67512 1.99057C2.85027 1.91323 3.03981 1.87385 3.23127 1.87503H6.25002C6.5194 1.87582 6.78239 1.95719 7.00514 2.10867C7.2279 2.26015 7.40025 2.4748 7.50002 2.72503L8.18127 4.43128C8.28143 4.67694 8.30698 4.94668 8.25474 5.20678C8.2025 5.46689 8.07477 5.70584 7.88752 5.89378L6.48752 7.29378C6.48752 7.29378 7.29377 12.75 12.7063 13.425Z" fill="currentColor"/>
        </symbol>

        <symbol id="phone" width="100%" height="100%" viewBox="0 0 40 40">
            <path d="M21.3333 10.6665C20.5973 10.6665 20 11.2638 20 11.9998C20 12.7358 20.5973 13.3332 21.3333 13.3332C24.2747 13.3332 26.6667 15.7252 26.6667 18.6665C26.6667 19.4025 27.264 19.9998 28 19.9998C28.736 19.9998 29.3333 19.4025 29.3333 18.6665C29.3333 14.2558 25.744 10.6665 21.3333 10.6665Z" fill="currentColor"/>
            <path d="M21.3333 5.33325C20.5973 5.33325 20 5.93059 20 6.66659C20 7.40259 20.5973 7.99992 21.3333 7.99992C27.216 7.99992 32 12.7839 32 18.6666C32 19.4026 32.5973 19.9999 33.3333 19.9999C34.0693 19.9999 34.6667 19.4026 34.6667 18.6666C34.6667 11.3146 28.6853 5.33325 21.3333 5.33325Z" fill="currentColor"/>
            <path d="M21.3333 0C20.5973 0 20 0.597333 20 1.33333C20 2.06933 20.5973 2.66667 21.3333 2.66667C30.1573 2.66667 37.3333 9.84267 37.3333 18.6667C37.3333 19.4027 37.9307 20 38.6667 20C39.4027 20 40 19.4027 40 18.6667C40 8.37333 31.624 0 21.3333 0Z" fill="currentColor"/>
            <path d="M36 29.3337C32.128 29.3337 28.44 28.491 25.04 26.8297C24.72 26.6697 24.352 26.651 24.0187 26.7683C23.6827 26.8857 23.408 27.131 23.2533 27.4483L21.1573 31.787C15.7333 28.7603 11.2427 24.2723 8.21867 18.8483L12.5547 16.747C12.8747 16.5923 13.1173 16.3177 13.2347 15.9817C13.3493 15.6483 13.328 15.2803 13.1707 14.9603C11.5093 11.5603 10.6667 7.87233 10.6667 4.00033C10.6667 3.26433 10.0693 2.66699 9.33333 2.66699H1.33333C0.597333 2.66699 0 3.26433 0 4.00033C0 23.851 16.1493 40.0003 36 40.0003C36.736 40.0003 37.3333 39.403 37.3333 38.667V30.667C37.3333 29.931 36.736 29.3337 36 29.3337Z" fill="currentColor"/>
        </symbol>

        <symbol id="geo" width="100%" height="100%" viewBox="0 0 32 40">
            <path d="M15.4295 0.0101807C7.46091 0.289027 0.840946 6.48925 0.076155 14.4036C-0.0800926 15.9864 0.0103667 17.5201 0.289968 18.9881C0.289968 18.9881 0.314638 19.1604 0.396874 19.4884C0.643581 20.5874 1.01364 21.6536 1.47416 22.6541C3.07775 26.4432 6.78658 32.7828 15.1088 39.6801C15.6187 40.1066 16.367 40.1066 16.8851 39.6801C25.2073 32.791 28.9162 26.4514 30.528 22.6459C30.9967 21.6454 31.3586 20.5874 31.6053 19.4802C31.6793 19.1604 31.7122 18.9799 31.7122 18.9799C31.9013 17.9958 32 16.987 32 15.9536C32 6.94853 24.5248 -0.309672 15.4295 0.0101807ZM15.997 23.8925C11.7043 23.8925 8.2257 20.4234 8.2257 16.1423C8.2257 11.8611 11.7043 8.39197 15.997 8.39197C20.2897 8.39197 23.7682 11.8611 23.7682 16.1423C23.7682 20.4234 20.2897 23.8925 15.997 23.8925Z" fill="currentColor"/>
        </symbol>

        <symbol id="mail" width="100%" height="100%" viewBox="0 0 40 40">
            <path d="M3.83921 13.9736C4.34521 14.3307 5.87046 15.3911 8.41505 17.1544C10.9597 18.9178 12.9091 20.2755 14.2633 21.2276C14.4121 21.332 14.7282 21.5589 15.2117 21.9086C15.6954 22.2586 16.0972 22.5413 16.417 22.757C16.737 22.9727 17.1238 23.2146 17.5779 23.4823C18.0318 23.7499 18.4597 23.9511 18.8615 24.0843C19.2634 24.2187 19.6354 24.2852 19.9776 24.2852H20H20.0225C20.3647 24.2852 20.7369 24.2186 21.1387 24.0843C21.5403 23.9511 21.9686 23.7496 22.4222 23.4823C22.8759 23.2143 23.2628 22.9726 23.5828 22.757C23.9028 22.5413 24.3043 22.2586 24.7881 21.9086C25.2716 21.5586 25.5881 21.332 25.7368 21.2276C27.1057 20.2755 30.5881 17.8572 36.1831 13.9731C37.2694 13.2145 38.1769 12.2992 38.906 11.2277C39.6356 10.1567 40 9.03312 40 7.85765C40 6.87537 39.6464 6.03452 38.9395 5.33518C38.2326 4.63569 37.3954 4.28613 36.4285 4.28613H3.57128C2.42552 4.28613 1.54378 4.67298 0.926223 5.44667C0.308741 6.22051 0 7.18778 0 8.3484C0 9.28588 0.409362 10.3018 1.22769 11.3955C2.04595 12.4892 2.91674 13.3487 3.83921 13.9736Z" fill="currentColor"/>
            <path d="M37.7675 16.3616C32.8871 19.6648 29.1813 22.232 26.6519 24.0626C25.8037 24.6873 25.1156 25.175 24.5871 25.5245C24.0587 25.8742 23.3559 26.2314 22.4778 26.5958C21.6 26.9607 20.7819 27.1426 20.0228 27.1426H20H19.9776C19.2187 27.1426 18.4001 26.9607 17.5223 26.5958C16.6445 26.2314 15.9412 25.8742 15.413 25.5245C14.8848 25.175 14.1965 24.6873 13.3484 24.0626C11.3394 22.5895 7.64151 20.0221 2.25469 16.3616C1.40626 15.7965 0.654774 15.1487 0 14.4197V32.1424C0 33.1251 0.349552 33.9655 1.04905 34.6649C1.74838 35.3646 2.58931 35.7143 3.57151 35.7143H36.4287C37.4107 35.7143 38.2516 35.3646 38.951 34.6649C39.6506 33.9653 40 33.1252 40 32.1424V14.4197C39.36 15.1336 38.6162 15.7814 37.7675 16.3616Z" fill="currentColor"/>
        </symbol>

        <symbol id="grid" width="100%" height="100%" viewBox="0 0 28 28">
            <path d="M22.1667 0H5.83333C4.28681 0.0018525 2.80415 0.617029 1.71059 1.71059C0.617029 2.80415 0.0018525 4.28681 0 5.83333L0 22.1667C0.0018525 23.7132 0.617029 25.1959 1.71059 26.2894C2.80415 27.383 4.28681 27.9981 5.83333 28H22.1667C23.7132 27.9981 25.1959 27.383 26.2894 26.2894C27.383 25.1959 27.9981 23.7132 28 22.1667V5.83333C27.9981 4.28681 27.383 2.80415 26.2894 1.71059C25.1959 0.617029 23.7132 0.0018525 22.1667 0V0ZM18.6667 12.8333H15.1667V9.33333H18.6667V12.8333ZM21 9.33333H25.6667V12.8333H21V9.33333ZM15.1667 7V2.33333H18.6667V7H15.1667ZM12.8333 7H9.33333V2.33333H12.8333V7ZM12.8333 9.33333V12.8333H9.33333V9.33333H12.8333ZM7 12.8333H2.33333V9.33333H7V12.8333ZM2.33333 15.1667H7V18.6667H2.33333V15.1667ZM9.33333 15.1667H12.8333V18.6667H9.33333V15.1667ZM12.8333 21V25.6667H9.33333V21H12.8333ZM15.1667 21H18.6667V25.6667H15.1667V21ZM15.1667 18.6667V15.1667H18.6667V18.6667H15.1667ZM21 15.1667H25.6667V18.6667H21V15.1667ZM25.6667 5.83333V7H21V2.33333H22.1667C23.0949 2.33333 23.9852 2.70208 24.6415 3.35846C25.2979 4.01484 25.6667 4.90508 25.6667 5.83333ZM5.83333 2.33333H7V7H2.33333V5.83333C2.33333 4.90508 2.70208 4.01484 3.35846 3.35846C4.01484 2.70208 4.90508 2.33333 5.83333 2.33333ZM2.33333 22.1667V21H7V25.6667H5.83333C4.90508 25.6667 4.01484 25.2979 3.35846 24.6415C2.70208 23.9852 2.33333 23.0949 2.33333 22.1667ZM22.1667 25.6667H21V21H25.6667V22.1667C25.6667 23.0949 25.2979 23.9852 24.6415 24.6415C23.9852 25.2979 23.0949 25.6667 22.1667 25.6667Z" fill="currentColor"/>
        </symbol>

        <symbol id="layers" width="100%" height="100%" viewBox="0 0 24 24">
            <path d="M22.485 10.975L12 17.267L1.515 10.975C1.28758 10.8386 1.01526 10.7981 0.757962 10.8624C0.500662 10.9267 0.279453 11.0906 0.143 11.318C0.00654566 11.5455 -0.0339759 11.8178 0.030349 12.0751C0.094674 12.3324 0.258576 12.5536 0.486 12.69L11.486 19.29C11.6415 19.3835 11.8196 19.4328 12.001 19.4328C12.1824 19.4328 12.3605 19.3835 12.516 19.29L23.516 12.69C23.7434 12.5536 23.9073 12.3324 23.9717 12.0751C24.036 11.8178 23.9955 11.5455 23.859 11.318C23.7225 11.0906 23.5013 10.9267 23.244 10.8624C22.9867 10.7981 22.7144 10.8386 22.487 10.975H22.485Z" fill="currentColor"/>
            <path d="M22.485 15.543L12 21.834L1.515 15.543C1.40239 15.4755 1.27757 15.4307 1.14768 15.4114C1.01779 15.3921 0.885361 15.3985 0.757959 15.4304C0.630557 15.4622 0.510676 15.5189 0.40516 15.597C0.299645 15.6752 0.210562 15.7734 0.142997 15.886C0.0754315 15.9986 0.0307078 16.1234 0.0113792 16.2533C-0.00794938 16.3832 -0.00150444 16.5157 0.0303461 16.6431C0.094671 16.9004 0.258573 17.1216 0.485997 17.258L11.486 23.858C11.6415 23.9515 11.8196 24.0008 12.001 24.0008C12.1824 24.0008 12.3605 23.9515 12.516 23.858L23.516 17.258C23.7434 17.1216 23.9073 16.9004 23.9716 16.6431C24.036 16.3858 23.9954 16.1134 23.859 15.886C23.7225 15.6586 23.5013 15.4947 23.244 15.4304C22.9867 15.366 22.7144 15.4066 22.487 15.543H22.485Z" fill="currentColor"/>
            <path d="M11.9999 14.7731C11.4605 14.7728 10.9313 14.6259 10.4689 14.3481L0.484928 8.35706C0.337075 8.26815 0.214739 8.14251 0.129809 7.99234C0.0448784 7.84217 0.000244141 7.67258 0.000244141 7.50006C0.000244141 7.32753 0.0448784 7.15794 0.129809 7.00777C0.214739 6.8576 0.337075 6.73196 0.484928 6.64306L10.4689 0.652056C10.9313 0.374285 11.4605 0.227539 11.9999 0.227539C12.5393 0.227539 13.0686 0.374285 13.5309 0.652056L23.5149 6.64306C23.6628 6.73196 23.7851 6.8576 23.87 7.00777C23.955 7.15794 23.9996 7.32753 23.9996 7.50006C23.9996 7.67258 23.955 7.84217 23.87 7.99234C23.7851 8.14251 23.6628 8.26815 23.5149 8.35706L13.5309 14.3481C13.0685 14.6259 12.5393 14.7728 11.9999 14.7731ZM2.94393 7.50006L11.4999 12.6331C11.651 12.7235 11.8238 12.7712 11.9999 12.7712C12.176 12.7712 12.3488 12.7235 12.4999 12.6331L21.0559 7.50006L12.4999 2.36706C12.3488 2.27666 12.176 2.22892 11.9999 2.22892C11.8238 2.22892 11.651 2.27666 11.4999 2.36706L2.94393 7.50006Z" fill="currentColor"/>
        </symbol>

        <symbol id="rack" width="100%" height="100%" viewBox="0 0 24 24">
            <path d="M15.7825 1.00354L7.60978 1.00354C6.65961 1.02644 5.7547 1.4141 5.08263 2.08617C4.41057 2.75823 4.0229 3.66315 4 4.61332C3.9998 5.08751 4.09306 5.55709 4.27443 5.99522C4.45581 6.43335 4.72175 6.83145 5.05705 7.16675C5.39236 7.50206 5.79045 7.768 6.22858 7.94937C6.66672 8.13074 7.1363 8.224 7.61049 8.2238L10.6963 8.2238V16.5592L7.60978 16.5599C6.65961 16.5828 5.7547 16.9705 5.08263 17.6425C4.41057 18.3146 4.0229 19.2195 4 20.1697C3.99981 20.6439 4.09306 21.1134 4.27443 21.5516C4.45581 21.9897 4.72175 22.3878 5.05705 22.7231C5.39236 23.0584 5.79045 23.3243 6.22858 23.5057C6.66672 23.6871 7.1363 23.7803 7.61049 23.7802C7.61049 23.7802 9.49122 23.7802 10.6963 23.7802L15.7825 23.7794C16.2566 23.7795 16.726 23.6862 17.164 23.5049C17.602 23.3235 18 23.0576 18.3352 22.7224C18.6705 22.3872 18.9364 21.9892 19.1177 21.5512C19.2991 21.1132 19.3924 20.6437 19.3923 20.1697C19.3925 19.6956 19.2993 19.226 19.118 18.788C18.9367 18.3499 18.6708 17.9519 18.3355 17.6166C18.0003 17.2814 17.6023 17.0155 17.1642 16.8342C16.7261 16.6529 16.2566 16.5597 15.7825 16.5599L12.6967 16.5599L12.7002 8.21956L15.7861 8.21956C16.2601 8.21966 16.7296 8.12636 17.1676 7.94499C17.6056 7.76362 18.0036 7.49773 18.3388 7.16251C18.674 6.82729 18.9399 6.42931 19.1213 5.99131C19.3026 5.5533 19.3959 5.08385 19.3958 4.60978C19.3961 4.13567 19.3029 3.66617 19.1215 3.2281C18.9402 2.79004 18.6743 2.392 18.3391 2.05676C18.0038 1.72151 17.6058 1.45563 17.1677 1.2743C16.7297 1.09298 16.2602 0.999766 15.7861 1L15.7825 1.00354ZM16.9217 19.0312C17.0715 19.1804 17.1903 19.3579 17.2711 19.5533C17.3519 19.7487 17.3932 19.9582 17.3926 20.1697C17.3832 20.5937 17.2105 20.9978 16.9106 21.2978C16.6107 21.5977 16.2066 21.7703 15.7825 21.7797H7.60978C7.18276 21.7797 6.77323 21.6101 6.47128 21.3082C6.16933 21.0062 5.9997 20.5967 5.9997 20.1697C5.9997 19.7426 6.16933 19.3331 6.47128 19.0312C6.77323 18.7292 7.18276 18.5596 7.60978 18.5596L15.7825 18.5596C15.9942 18.559 16.2038 18.6003 16.3993 18.6813C16.5949 18.7622 16.7724 18.8812 16.9217 19.0312ZM17.3926 4.61332C17.3832 5.03738 17.2105 5.44147 16.9106 5.74141C16.6107 6.04134 16.2066 6.21399 15.7825 6.2234H7.60978C7.39834 6.2234 7.18897 6.18175 6.99363 6.10084C6.79829 6.01992 6.62079 5.90133 6.47128 5.75182C6.32177 5.60231 6.20317 5.42481 6.12226 5.22947C6.04134 5.03412 5.9997 4.82475 5.9997 4.61332C5.9997 4.40188 6.04134 4.19251 6.12226 3.99716C6.20317 3.80182 6.32177 3.62433 6.47128 3.47482C6.62079 3.32531 6.79829 3.20671 6.99363 3.12579C7.18897 3.04488 7.39834 3.00323 7.60978 3.00323L15.7825 3.00323C15.994 3.00309 16.2034 3.04464 16.3988 3.1255C16.5942 3.20637 16.7718 3.32496 16.9213 3.4745C17.0709 3.62404 17.1895 3.80159 17.2703 3.997C17.3512 4.1924 17.3927 4.40184 17.3926 4.61332Z" fill="currentColor"/>
            <path d="M10.5 17.2802C10.5 16.7279 10.9477 16.2802 11.5 16.2802C12.0523 16.2802 12.5 16.7279 12.5 17.2802V18.2802C12.5 18.8324 12.0523 19.2802 11.5 19.2802C10.9477 19.2802 10.5 18.8324 10.5 18.2802V17.2802Z" fill="currentColor"/>
        </symbol>

        <symbol id="settings" width="100%" height="100%" viewBox="0 0 24 24">
            <path d="M12 8C11.2089 8 10.4355 8.2346 9.77772 8.67412C9.11993 9.11365 8.60723 9.73836 8.30448 10.4693C8.00173 11.2002 7.92252 12.0044 8.07686 12.7804C8.2312 13.5563 8.61216 14.269 9.17157 14.8284C9.73098 15.3878 10.4437 15.7688 11.2196 15.9231C11.9956 16.0775 12.7998 15.9983 13.5307 15.6955C14.2616 15.3928 14.8864 14.8801 15.3259 14.2223C15.7654 13.5645 16 12.7911 16 12C16 10.9391 15.5786 9.92172 14.8284 9.17157C14.0783 8.42143 13.0609 8 12 8ZM12 14C11.6044 14 11.2178 13.8827 10.8889 13.6629C10.56 13.4432 10.3036 13.1308 10.1522 12.7654C10.0009 12.3999 9.96126 11.9978 10.0384 11.6098C10.1156 11.2219 10.3061 10.8655 10.5858 10.5858C10.8655 10.3061 11.2219 10.1156 11.6098 10.0384C11.9978 9.96126 12.3999 10.0009 12.7654 10.1522C13.1308 10.3036 13.4432 10.56 13.6629 10.8889C13.8827 11.2178 14 11.6044 14 12C14 12.5304 13.7893 13.0391 13.4142 13.4142C13.0391 13.7893 12.5304 14 12 14Z" fill="currentColor"/>
            <path d="M21.294 13.9L20.85 13.644C21.0499 12.5564 21.0499 11.4416 20.85 10.354L21.294 10.098C21.6355 9.90102 21.9348 9.63871 22.1748 9.32606C22.4149 9.01341 22.591 8.65654 22.6932 8.27582C22.7953 7.8951 22.8215 7.49799 22.7702 7.10716C22.7188 6.71633 22.591 6.33944 22.394 5.998C22.1971 5.65656 21.9348 5.35727 21.6221 5.1172C21.3095 4.87714 20.9526 4.70101 20.5719 4.59886C20.1911 4.49672 19.794 4.47056 19.4032 4.52189C19.0124 4.57321 18.6355 4.70102 18.294 4.898L17.849 5.155C17.0086 4.43692 16.0427 3.88025 15 3.513V3C15 2.20435 14.684 1.44129 14.1214 0.87868C13.5588 0.31607 12.7957 0 12 0C11.2044 0 10.4413 0.31607 9.87872 0.87868C9.31611 1.44129 9.00004 2.20435 9.00004 3V3.513C7.95743 3.88157 6.99189 4.4396 6.15204 5.159L5.70504 4.9C5.01548 4.50218 4.19612 4.39457 3.42723 4.60086C2.65833 4.80715 2.00287 5.31044 1.60504 6C1.20722 6.68956 1.09962 7.50892 1.30591 8.27782C1.5122 9.04672 2.01548 9.70218 2.70504 10.1L3.14904 10.356C2.94915 11.4436 2.94915 12.5584 3.14904 13.646L2.70504 13.902C2.01548 14.2998 1.5122 14.9553 1.30591 15.7242C1.09962 16.4931 1.20722 17.3124 1.60504 18.002C2.00287 18.6916 2.65833 19.1948 3.42723 19.4011C4.19612 19.6074 5.01548 19.4998 5.70504 19.102L6.15004 18.845C6.99081 19.5632 7.95702 20.1199 9.00004 20.487V21C9.00004 21.7956 9.31611 22.5587 9.87872 23.1213C10.4413 23.6839 11.2044 24 12 24C12.7957 24 13.5588 23.6839 14.1214 23.1213C14.684 22.5587 15 21.7956 15 21V20.487C16.0427 20.1184 17.0082 19.5604 17.848 18.841L18.295 19.099C18.9846 19.4968 19.804 19.6044 20.5729 19.3981C21.3418 19.1918 21.9972 18.6886 22.395 17.999C22.7929 17.3094 22.9005 16.4901 22.6942 15.7212C22.4879 14.9523 21.9846 14.2968 21.295 13.899L21.294 13.9ZM18.746 10.124C19.0847 11.3511 19.0847 12.6469 18.746 13.874C18.6869 14.0876 18.7004 14.3147 18.7844 14.5198C18.8684 14.7249 19.0181 14.8963 19.21 15.007L20.294 15.633C20.5239 15.7656 20.6916 15.9841 20.7603 16.2403C20.829 16.4966 20.7932 16.7697 20.6605 16.9995C20.5279 17.2293 20.3095 17.397 20.0532 17.4658C19.7969 17.5345 19.5239 17.4986 19.294 17.366L18.208 16.738C18.0159 16.6267 17.7923 16.5826 17.5723 16.6124C17.3523 16.6423 17.1485 16.7445 16.993 16.903C16.103 17.8117 14.9816 18.46 13.75 18.778C13.5351 18.8333 13.3446 18.9585 13.2086 19.1339C13.0727 19.3094 12.9989 19.525 12.999 19.747V21C12.999 21.2652 12.8937 21.5196 12.7062 21.7071C12.5186 21.8946 12.2643 22 11.999 22C11.7338 22 11.4795 21.8946 11.2919 21.7071C11.1044 21.5196 10.999 21.2652 10.999 21V19.748C10.9992 19.526 10.9254 19.3104 10.7894 19.1349C10.6535 18.9595 10.463 18.8343 10.248 18.779C9.01639 18.4597 7.89537 17.81 7.00604 16.9C6.85057 16.7415 6.64678 16.6393 6.4268 16.6094C6.20682 16.5796 5.98315 16.6237 5.79104 16.735L4.70704 17.362C4.59327 17.4287 4.46743 17.4722 4.33677 17.4901C4.2061 17.508 4.0732 17.4998 3.9457 17.4661C3.8182 17.4324 3.69862 17.3738 3.59386 17.2937C3.4891 17.2136 3.40122 17.1135 3.33528 16.9993C3.26934 16.8851 3.22664 16.759 3.20964 16.6282C3.19264 16.4974 3.20168 16.3646 3.23623 16.2373C3.27079 16.11 3.33017 15.9909 3.41098 15.8866C3.49178 15.7824 3.5924 15.6952 3.70704 15.63L4.79104 15.004C4.98299 14.8933 5.13272 14.7219 5.2167 14.5168C5.30069 14.3117 5.31417 14.0846 5.25504 13.871C4.9164 12.6439 4.9164 11.3481 5.25504 10.121C5.31311 9.90788 5.29898 9.68153 5.21486 9.47729C5.13074 9.27305 4.98136 9.10241 4.79004 8.992L3.70604 8.366C3.47623 8.23339 3.30851 8.01492 3.23978 7.75865C3.17105 7.50239 3.20693 7.22931 3.33954 6.9995C3.47215 6.76969 3.69062 6.60197 3.94689 6.53324C4.20316 6.46451 4.47623 6.50039 4.70604 6.633L5.79204 7.261C5.98362 7.37251 6.20682 7.41721 6.42657 7.38807C6.64632 7.35893 6.85015 7.25759 7.00604 7.1C7.89613 6.19134 9.01747 5.54302 10.249 5.225C10.4647 5.16956 10.6556 5.04375 10.7917 4.8675C10.9277 4.69125 11.001 4.47464 11 4.252V3C11 2.73478 11.1054 2.48043 11.2929 2.29289C11.4805 2.10536 11.7348 2 12 2C12.2653 2 12.5196 2.10536 12.7071 2.29289C12.8947 2.48043 13 2.73478 13 3V4.252C12.9999 4.47396 13.0737 4.68964 13.2096 4.86508C13.3456 5.04052 13.5361 5.16573 13.751 5.221C14.9831 5.54015 16.1044 6.18988 16.994 7.1C17.1495 7.25847 17.3533 7.36069 17.5733 7.39057C17.7933 7.42044 18.0169 7.37626 18.209 7.265L19.293 6.638C19.4068 6.5713 19.5327 6.52777 19.6633 6.5099C19.794 6.49204 19.9269 6.50019 20.0544 6.5339C20.1819 6.56761 20.3015 6.6262 20.4062 6.70631C20.511 6.78642 20.5989 6.88646 20.6648 7.00067C20.7307 7.11488 20.7734 7.24101 20.7904 7.37179C20.8074 7.50257 20.7984 7.63542 20.7639 7.76269C20.7293 7.88997 20.6699 8.00915 20.5891 8.11337C20.5083 8.2176 20.4077 8.30482 20.293 8.37L19.209 8.996C19.0181 9.10671 18.8691 9.27748 18.7854 9.48169C18.7016 9.68591 18.6878 9.9121 18.746 10.125V10.124Z" fill="currentColor"/>
        </symbol>

        <symbol id="square" width="100%" height="100%" viewBox="0 0 24 24">
            <path d="M10.007 3L8 2.986C7.9963 2.19278 7.67859 1.43331 7.11639 0.873724C6.55418 0.314139 5.79323 -8.63726e-06 5 1.78109e-10L3 1.7811e-10C2.20435 1.7811e-10 1.44129 0.31607 0.87868 0.87868C0.31607 1.44129 0 2.20435 0 3L0 5C-2.16263e-06 5.79444 0.315107 6.55644 0.876203 7.11885C1.4373 7.68126 2.19856 7.99815 2.993 8L2.979 9.993C2.97808 10.1244 3.00306 10.2547 3.05253 10.3764C3.102 10.4982 3.17497 10.609 3.26729 10.7025C3.3596 10.796 3.46945 10.8704 3.59054 10.9215C3.71163 10.9725 3.84159 10.9992 3.973 11H3.979C4.24301 11 4.49631 10.8956 4.68364 10.7096C4.87098 10.5236 4.97715 10.271 4.979 10.007L4.993 8H5C5.79565 8 6.55871 7.68393 7.12132 7.12132C7.68393 6.55871 8 5.79565 8 5V4.986L9.993 5H10C10.1313 5.00046 10.2614 4.97505 10.3829 4.92522C10.5045 4.87539 10.6149 4.80212 10.7081 4.70958C10.8013 4.61705 10.8754 4.50707 10.926 4.38592C10.9767 4.26477 11.003 4.13482 11.0035 4.0035C11.004 3.87218 10.9785 3.74205 10.9287 3.62055C10.8789 3.49905 10.8056 3.38855 10.7131 3.29537C10.6205 3.20218 10.5106 3.12814 10.3894 3.07746C10.2683 3.02678 10.1383 3.00046 10.007 3ZM6 5C6 5.26522 5.89464 5.51957 5.70711 5.70711C5.51957 5.89464 5.26522 6 5 6H3C2.73478 6 2.48043 5.89464 2.29289 5.70711C2.10536 5.51957 2 5.26522 2 5V3C2 2.73478 2.10536 2.48043 2.29289 2.29289C2.48043 2.10536 2.73478 2 3 2H5C5.26522 2 5.51957 2.10536 5.70711 2.29289C5.89464 2.48043 6 2.73478 6 3V5Z" fill="currentColor"/>
            <path d="M21.0001 0H19.0001C18.2057 -2.16263e-06 17.4436 0.315107 16.8812 0.876203C16.3188 1.4373 16.0019 2.19856 16.0001 2.993L14.0061 2.979H14.0001C13.7349 2.97807 13.4801 3.08254 13.292 3.26942C13.1038 3.4563 12.9975 3.71028 12.9966 3.9755C12.9957 4.24072 13.1001 4.49544 13.287 4.68363C13.4739 4.87182 13.7279 4.97807 13.9931 4.979L16.0001 4.993V5C16.0001 5.79565 16.3162 6.55871 16.8788 7.12132C17.4414 7.68393 18.2044 8 19.0001 8H19.0141L19.0001 9.993C18.9992 10.1243 19.0241 10.2545 19.0735 10.3762C19.1229 10.4979 19.1958 10.6087 19.288 10.7022C19.3802 10.7957 19.49 10.8701 19.6109 10.9212C19.7319 10.9723 19.8618 10.9991 19.9931 11H20.0001C20.2641 11 20.5174 10.8956 20.7047 10.7096C20.8921 10.5236 20.9982 10.271 21.0001 10.007L21.0141 8C21.8073 7.9963 22.5668 7.67859 23.1264 7.11639C23.6859 6.55418 24.0001 5.79323 24.0001 5V3C24.0001 2.20435 23.684 1.44129 23.1214 0.87868C22.5588 0.31607 21.7957 0 21.0001 0V0ZM22.0001 5C22.0001 5.26522 21.8947 5.51957 21.7072 5.70711C21.5197 5.89464 21.2653 6 21.0001 6H19.0001C18.7349 6 18.4805 5.89464 18.293 5.70711C18.1054 5.51957 18.0001 5.26522 18.0001 5V3C18.0001 2.73478 18.1054 2.48043 18.293 2.29289C18.4805 2.10536 18.7349 2 19.0001 2H21.0001C21.2653 2 21.5197 2.10536 21.7072 2.29289C21.8947 2.48043 22.0001 2.73478 22.0001 3V5Z" fill="currentColor"/>
            <path d="M21.0071 16L21.0211 14.006C21.0219 13.8747 20.9968 13.7445 20.9473 13.6229C20.8977 13.5012 20.8247 13.3905 20.7324 13.2971C20.6401 13.2037 20.5303 13.1294 20.4093 13.0784C20.2883 13.0274 20.1584 13.0008 20.0271 13H20.0211C19.7571 13 19.5038 13.1044 19.3164 13.2904C19.1291 13.4764 19.0229 13.729 19.0211 13.993L19.0071 16H19.0001C18.2044 16 17.4414 16.3161 16.8788 16.8787C16.3162 17.4413 16.0001 18.2044 16.0001 19V19.014L14.0071 19H14.0001C13.7349 18.9991 13.4801 19.1035 13.292 19.2904C13.1038 19.4773 12.9975 19.7313 12.9966 19.9965C12.9957 20.2617 13.1001 20.5164 13.287 20.7046C13.4739 20.8928 13.7279 20.9991 13.9931 21L16.0001 21.014C16.0038 21.8072 16.3215 22.5667 16.8837 23.1263C17.4459 23.6859 18.2069 24 19.0001 24H21.0001C21.7957 24 22.5588 23.6839 23.1214 23.1213C23.684 22.5587 24.0001 21.7956 24.0001 21V19C24.0001 18.2056 23.685 17.4436 23.1239 16.8812C22.5628 16.3187 21.8015 16.0019 21.0071 16ZM22.0001 21C22.0001 21.2652 21.8947 21.5196 21.7072 21.7071C21.5197 21.8946 21.2653 22 21.0001 22H19.0001C18.7349 22 18.4805 21.8946 18.293 21.7071C18.1054 21.5196 18.0001 21.2652 18.0001 21V19C18.0001 18.7348 18.1054 18.4804 18.293 18.2929C18.4805 18.1054 18.7349 18 19.0001 18H21.0001C21.2653 18 21.5197 18.1054 21.7072 18.2929C21.8947 18.4804 22.0001 18.7348 22.0001 19V21Z" fill="currentColor"/>
            <path d="M10.007 19.021L8 19.007V19C8 18.2044 7.68393 17.4413 7.12132 16.8787C6.55871 16.3161 5.79565 16 5 16H4.986L5 14.007C5.00092 13.8757 4.97597 13.7455 4.92656 13.6238C4.87716 13.5021 4.80427 13.3913 4.71206 13.2978C4.61985 13.2043 4.51013 13.1299 4.38915 13.0788C4.26818 13.0277 4.13832 13.0009 4.007 13H4C3.73599 13 3.48269 13.1044 3.29536 13.2904C3.10802 13.4764 3.00185 13.729 3 13.993L2.986 16C2.19278 16.0037 1.43331 16.3214 0.873724 16.8836C0.314139 17.4458 -8.63726e-06 18.2068 1.78109e-10 19L1.78109e-10 21C1.7811e-10 21.7956 0.31607 22.5587 0.87868 23.1213C1.44129 23.6839 2.20435 24 3 24H5C5.79444 24 6.55644 23.6849 7.11885 23.1238C7.68126 22.5627 7.99815 21.8014 8 21.007L9.994 21.021H10C10.2652 21.0219 10.5199 20.9175 10.7081 20.7306C10.8963 20.5437 11.0026 20.2897 11.0035 20.0245C11.0044 19.7593 10.9 19.5046 10.7131 19.3164C10.5262 19.1282 10.2722 19.0219 10.007 19.021ZM6 21C6 21.2652 5.89464 21.5196 5.70711 21.7071C5.51957 21.8946 5.26522 22 5 22H3C2.73478 22 2.48043 21.8946 2.29289 21.7071C2.10536 21.5196 2 21.2652 2 21V19C2 18.7348 2.10536 18.4804 2.29289 18.2929C2.48043 18.1054 2.73478 18 3 18H5C5.26522 18 5.51957 18.1054 5.70711 18.2929C5.89464 18.4804 6 18.7348 6 19V21Z" fill="#D17118"/>
        </symbol>

        <symbol id="protractor" width="100%" height="100%" viewBox="0 0 24 24">
            <path d="M21.977 11.264C21.613 5.724 16.474 1.041 10.731 1C10.5556 0.696116 10.3032 0.443739 9.9994 0.268212C9.69557 0.0926844 9.35089 0.00018439 9 0L7 0C5.93913 0 4.92172 0.421427 4.17157 1.17157C3.42143 1.92172 3 2.93913 3 4V20C3 21.0609 3.42143 22.0783 4.17157 22.8284C4.92172 23.5786 5.93913 24 7 24H9C9.35089 23.9998 9.69557 23.9073 9.9994 23.7318C10.3032 23.5563 10.5556 23.3039 10.731 23H11C12.5047 22.9974 13.993 22.6873 15.3736 22.0887C16.7541 21.4901 17.9977 20.6157 19.028 19.519C20.0634 18.4216 20.86 17.1214 21.3676 15.7006C21.8752 14.2797 22.0827 12.7691 21.977 11.264ZM17.568 18.151C16.7297 19.0542 15.7132 19.7737 14.5827 20.2641C13.4522 20.7545 12.2323 21.0051 11 21H10C9.73478 21 9.48043 21.1054 9.29289 21.2929C9.10536 21.4804 9 21.7348 9 22H7C6.46957 22 5.96086 21.7893 5.58579 21.4142C5.21071 21.0391 5 20.5304 5 20V19H6C6.26522 19 6.51957 18.8946 6.70711 18.7071C6.89464 18.5196 7 18.2652 7 18C7 17.7348 6.89464 17.4804 6.70711 17.2929C6.51957 17.1054 6.26522 17 6 17H5V15H6C6.26522 15 6.51957 14.8946 6.70711 14.7071C6.89464 14.5196 7 14.2652 7 14C7 13.7348 6.89464 13.4804 6.70711 13.2929C6.51957 13.1054 6.26522 13 6 13H5V11H6C6.26522 11 6.51957 10.8946 6.70711 10.7071C6.89464 10.5196 7 10.2652 7 10C7 9.73478 6.89464 9.48043 6.70711 9.29289C6.51957 9.10536 6.26522 9 6 9H5V7H6C6.26522 7 6.51957 6.89464 6.70711 6.70711C6.89464 6.51957 7 6.26522 7 6C7 5.73478 6.89464 5.48043 6.70711 5.29289C6.51957 5.10536 6.26522 5 6 5H5V4C5 3.46957 5.21071 2.96086 5.58579 2.58579C5.96086 2.21071 6.46957 2 7 2H9C9 2.26522 9.10536 2.51957 9.29289 2.70711C9.48043 2.89464 9.73478 3 10 3H10.656C15.413 3 19.683 6.844 19.98 11.394C20.0673 12.6259 19.898 13.8625 19.4829 15.0255C19.0677 16.1886 18.4157 17.2529 17.568 18.151ZM11 7C10.4696 7 9.96086 7.21071 9.58579 7.58579C9.21071 7.96086 9 8.46957 9 9V15C9.00615 15.5234 9.21591 16.0238 9.5848 16.3951C9.95368 16.7664 10.4527 16.9794 10.976 16.989C12.2142 16.9754 13.4049 16.511 14.3253 15.6827C15.2457 14.8543 15.8325 13.7189 15.976 12.489C16.0442 11.7945 15.9664 11.0934 15.7474 10.4308C15.5283 9.76824 15.1731 9.15883 14.7044 8.64181C14.2357 8.12479 13.6639 7.71161 13.0259 7.42885C12.388 7.14609 11.6978 7 11 7ZM11 15V9C11.4194 8.99986 11.8341 9.08763 12.2174 9.25766C12.6008 9.42769 12.9442 9.6762 13.2255 9.98715C13.5069 10.2981 13.72 10.6646 13.8509 11.063C13.9819 11.4613 14.0279 11.8827 13.986 12.3C13.8932 13.0327 13.541 13.7079 12.9932 14.2032C12.4454 14.6986 11.7383 14.9812 11 15Z" fill="currentColor"/>
        </symbol>

        <symbol id="doc" width="100%" height="100%" viewBox="0 0 24 24">
            <path d="M19.535 3.12202L17.879 1.46402C17.4157 0.998333 16.8646 0.629159 16.2576 0.377864C15.6507 0.126569 14.9999 -0.00185599 14.343 2.02654e-05H8C6.67441 0.00160812 5.40356 0.528902 4.46622 1.46624C3.52888 2.40358 3.00159 3.67443 3 5.00002V19C3.00159 20.3256 3.52888 21.5965 4.46622 22.5338C5.40356 23.4711 6.67441 23.9984 8 24H16C17.3256 23.9984 18.5964 23.4711 19.5338 22.5338C20.4711 21.5965 20.9984 20.3256 21 19V6.65702C21.0016 6.00021 20.873 5.34959 20.6215 4.74281C20.37 4.13604 20.0007 3.58515 19.535 3.12202ZM18.121 4.53602C18.2628 4.67734 18.3898 4.83282 18.5 5.00002H16V2.50002C16.1669 2.61134 16.3227 2.7386 16.465 2.88002L18.121 4.53602ZM19 19C19 19.7957 18.6839 20.5587 18.1213 21.1213C17.5587 21.684 16.7956 22 16 22H8C7.20435 22 6.44129 21.684 5.87868 21.1213C5.31607 20.5587 5 19.7957 5 19V5.00002C5 4.20437 5.31607 3.44131 5.87868 2.8787C6.44129 2.31609 7.20435 2.00002 8 2.00002H14V5.00002C14 5.53046 14.2107 6.03916 14.5858 6.41424C14.9609 6.78931 15.4696 7.00002 16 7.00002H19V19ZM16 9.00002C16.2652 9.00002 16.5196 9.10538 16.7071 9.29292C16.8946 9.48045 17 9.73481 17 10C17 10.2652 16.8946 10.5196 16.7071 10.7071C16.5196 10.8947 16.2652 11 16 11H8C7.73478 11 7.48043 10.8947 7.29289 10.7071C7.10536 10.5196 7 10.2652 7 10C7 9.73481 7.10536 9.48045 7.29289 9.29292C7.48043 9.10538 7.73478 9.00002 8 9.00002H16ZM17 14C17 14.2652 16.8946 14.5196 16.7071 14.7071C16.5196 14.8947 16.2652 15 16 15H8C7.73478 15 7.48043 14.8947 7.29289 14.7071C7.10536 14.5196 7 14.2652 7 14C7 13.7348 7.10536 13.4805 7.29289 13.2929C7.48043 13.1054 7.73478 13 8 13H16C16.2652 13 16.5196 13.1054 16.7071 13.2929C16.8946 13.4805 17 13.7348 17 14ZM16.808 17.413C16.9634 17.6269 17.0279 17.8936 16.9872 18.1548C16.9466 18.416 16.8041 18.6505 16.591 18.807C15.5778 19.529 14.3778 19.9432 13.135 20C12.4089 19.9965 11.7048 19.7501 11.135 19.3C10.807 19.075 10.682 19 10.435 19C9.76643 19.1035 9.13562 19.3769 8.603 19.794C8.39175 19.9446 8.13024 20.0072 7.87369 19.9686C7.61715 19.93 7.38565 19.7932 7.22808 19.5871C7.07052 19.381 6.99922 19.1217 7.02925 18.864C7.05927 18.6063 7.18827 18.3704 7.389 18.206C8.27018 17.522 9.32828 17.1036 10.439 17C11.1051 17.0107 11.7491 17.2409 12.271 17.655C12.5089 17.869 12.8152 17.9913 13.135 18C13.9527 17.9388 14.739 17.6594 15.412 17.191C15.6266 17.0355 15.8942 16.9715 16.1559 17.0131C16.4177 17.0547 16.6522 17.1986 16.808 17.413Z" fill="currentColor"/>
        </symbol>

        <symbol id="tools" width="100%" height="100%" viewBox="0 0 24 24">
            <path fill-rule="evenodd" clip-rule="evenodd" d="M8.14938 3.45573C7.25399 4.07668 6.52248 4.90542 6.0175 5.87098C5.51252 6.83653 5.24912 7.9101 5.24988 8.99973C5.24988 11.3967 6.49788 13.5027 8.38488 14.7027C9.16188 15.1947 9.77838 16.0872 9.73788 17.1627V17.1747L9.49188 22.1802C9.48718 22.3295 9.4528 22.4764 9.39074 22.6122C9.32868 22.7481 9.24018 22.8703 9.13042 22.9716C9.02065 23.0729 8.89181 23.1513 8.75141 23.2023C8.61101 23.2533 8.46187 23.2758 8.31268 23.2685C8.16349 23.2612 8.01724 23.2243 7.88246 23.1599C7.74769 23.0955 7.62709 23.0049 7.52769 22.8935C7.42829 22.782 7.35209 22.6518 7.30354 22.5105C7.25498 22.3693 7.23504 22.2198 7.24488 22.0707L7.48938 17.0757C7.49238 16.9482 7.41438 16.7517 7.17888 16.6017C5.89783 15.7897 4.84292 14.667 4.11227 13.3379C3.38162 12.0087 2.99896 10.5164 2.99988 8.99973C2.99932 7.55034 3.34917 6.12229 4.01962 4.83728C4.69007 3.55228 5.66124 2.4484 6.85038 1.61973C7.21393 1.35806 7.64805 1.21233 8.09585 1.20162C8.54365 1.19092 8.98424 1.31574 9.35988 1.55973C10.0529 2.00373 10.4999 2.80023 10.4999 3.69423V7.92423C10.4999 8.04723 10.5614 8.16423 10.6649 8.23323L11.7899 8.99823C11.8519 9.04015 11.925 9.06254 11.9999 9.06254C12.0747 9.06254 12.1479 9.04015 12.2099 8.99823L13.3349 8.23323C13.3857 8.1989 13.4273 8.15265 13.456 8.09852C13.4848 8.04439 13.4999 7.98403 13.4999 7.92273V3.69423C13.4999 2.80023 13.9469 2.00373 14.6399 1.55973C15.0155 1.31574 15.4561 1.19092 15.9039 1.20162C16.3517 1.21233 16.7858 1.35806 17.1494 1.61973C18.3385 2.4484 19.3097 3.55228 19.9801 4.83728C20.6506 6.12229 21.0004 7.55034 20.9999 8.99973C21.0008 10.5164 20.6181 12.0087 19.8875 13.3379C19.1568 14.667 18.1019 15.7897 16.8209 16.6017C16.5854 16.7517 16.5074 16.9467 16.5104 17.0742L16.7549 22.0692C16.7645 22.2181 16.7444 22.3674 16.6958 22.5084C16.6472 22.6495 16.571 22.7794 16.4717 22.8907C16.3724 23.002 16.252 23.0925 16.1174 23.1568C15.9828 23.2212 15.8367 23.2581 15.6877 23.2654C15.5387 23.2728 15.3898 23.2505 15.2495 23.1997C15.1092 23.149 14.9804 23.0708 14.8706 22.9698C14.7608 22.8688 14.6722 22.747 14.6099 22.6115C14.5477 22.4759 14.513 22.3293 14.5079 22.1802L14.2619 17.1627C14.2214 16.0872 14.8379 15.1947 15.6149 14.7027C16.5761 14.0938 17.3677 13.2516 17.9158 12.2544C18.464 11.2572 18.7509 10.1376 18.7499 8.99973C18.7506 7.9101 18.4872 6.83653 17.9823 5.87098C17.4773 4.90542 16.7458 4.07668 15.8504 3.45573C15.8144 3.48123 15.7499 3.55623 15.7499 3.69573V7.92273C15.7499 8.35117 15.6451 8.7731 15.4446 9.15171C15.244 9.53031 14.9538 9.85407 14.5994 10.0947L13.4744 10.8597C13.0394 11.1551 12.5257 11.313 11.9999 11.313C11.4741 11.313 10.9604 11.1551 10.5254 10.8597L9.40038 10.0947C9.04592 9.85407 8.75575 9.53031 8.55521 9.15171C8.35467 8.7731 8.24984 8.35117 8.24988 7.92273V3.69423C8.24988 3.55623 8.18538 3.48123 8.14938 3.45573Z" fill="currentColor"/>
        </symbol>

        <symbol id="pc" width="100%" height="100%" viewBox="0 0 32 32">
            <path d="M30.4375 0H1.5625C0.700938 0 0 0.700938 0 1.5625V23.6263C0 24.4879 0.700938 25.1888 1.5625 25.1888H11.8836V30.125H10.7659C10.2482 30.125 9.82844 30.5448 9.82844 31.0625C9.82844 31.5802 10.2482 32 10.7659 32H21.2341C21.7518 32 22.1716 31.5802 22.1716 31.0625C22.1716 30.5448 21.7518 30.125 21.2341 30.125H20.1164V25.1888H30.4375C31.2991 25.1888 32 24.4879 32 23.6263C32 23.1705 32 2.22594 32 1.5625C32 0.700938 31.2991 0 30.4375 0ZM18.2414 30.125H13.7586V25.1888H18.2414V30.125ZM30.125 23.3138C28.9421 23.3138 3.71419 23.3138 1.875 23.3138V19.8806H30.125V23.3138ZM30.125 18.0056H1.875V1.875H30.125V18.0056Z" fill="currentColor"/>
            <path d="M5.35596 14.7944H13.0226C13.5404 14.7944 13.9601 14.3747 13.9601 13.8569C13.9601 13.3392 13.5404 12.9194 13.0226 12.9194H5.35596C4.83821 12.9194 4.41846 13.3392 4.41846 13.8569C4.41846 14.3747 4.83821 14.7944 5.35596 14.7944Z" fill="currentColor"/>
            <path d="M5.35596 6.96118H13.0226C13.5404 6.96118 13.9601 6.54143 13.9601 6.02368C13.9601 5.50593 13.5404 5.08618 13.0226 5.08618H5.35596C4.83821 5.08618 4.41846 5.50593 4.41846 6.02368C4.41846 6.54143 4.83821 6.96118 5.35596 6.96118Z" fill="currentColor"/>
            <path d="M5.35596 10.8777H13.0226C13.5404 10.8777 13.9601 10.4579 13.9601 9.94019C13.9601 9.42244 13.5404 9.00269 13.0226 9.00269H5.35596C4.83821 9.00269 4.41846 9.42244 4.41846 9.94019C4.41846 10.4579 4.83821 10.8777 5.35596 10.8777Z" fill="currentColor"/>
            <path d="M17.8171 14.7946H26.6441C27.1618 14.7946 27.5816 14.3748 27.5816 13.8571V6.02368C27.5816 5.50593 27.1618 5.08618 26.6441 5.08618H17.8171C17.2994 5.08618 16.8796 5.50593 16.8796 6.02368V13.8571C16.8796 14.3748 17.2994 14.7946 17.8171 14.7946ZM18.7546 6.96118H25.7066V12.9196H18.7546V6.96118Z" fill="currentColor"/>
        </symbol>

        <symbol id="direct" width="100%" height="100%" viewBox="0 0 32 32">
            <path d="M30.6454 0.0525057L0.710502 9.83407C-0.134902 10.1103 -0.257158 11.2602 0.512248 11.7076L11.8249 18.2857C12.1818 18.4933 12.6279 18.4682 12.9592 18.2221L16.1393 15.8605L13.7777 19.0406C13.5316 19.372 13.5066 19.8181 13.7141 20.1749L20.2922 31.4876C20.7401 32.2577 21.8897 32.1341 22.1658 31.2894L31.9474 1.35442C32.2097 0.550626 31.4453 -0.209038 30.6454 0.0525057ZM20.9188 28.4583L15.8407 19.7252L21.964 11.4798C22.2691 11.0689 22.2271 10.4964 21.8652 10.1345C21.5033 9.77259 20.9307 9.73053 20.5198 10.0357L12.2745 16.1591L3.54148 11.0809L29.3531 2.64665L20.9188 28.4583ZM10.8378 22.6217L3.98386 29.4756C3.58077 29.8786 2.92717 29.8787 2.52408 29.4756C2.12093 29.0725 2.12093 28.4189 2.52408 28.0158L9.37802 21.1619C9.78124 20.7589 10.4348 20.7588 10.8378 21.1619C11.241 21.565 11.241 22.2186 10.8378 22.6217ZM1.78319 22.8811C1.38004 22.4779 1.38004 21.8244 1.78319 21.4213L4.48766 18.7167C4.89075 18.3136 5.54435 18.3136 5.94744 18.7167C6.35059 19.1199 6.35059 19.7734 5.94744 20.1765L3.24297 22.8811C2.83995 23.2841 2.18628 23.2842 1.78319 22.8811ZM13.283 26.0522C13.6861 26.4553 13.6861 27.1089 13.283 27.512L10.5785 30.2165C10.3769 30.4181 10.1127 30.5189 9.84859 30.5189C8.93719 30.5189 8.46662 29.4088 9.11874 28.7567L11.8233 26.0522C12.2263 25.6491 12.8799 25.6491 13.283 26.0522Z" fill="currentColor"/>
        </symbol>

    </defs>
</svg>