<?xml version="1.0"?>
<svg xmlns="http://www.w3.org/2000/svg" xmlns:xlink="http://www.w3.org/1999/xlink" version="1.1" xml:space="preserve">
	<defs>
		<!--  -->
		<!--  -->
		<!--  -->
		<!--  -->
		<symbol id="gal-ochka" width="100%" height="100%" viewBox="0 0 14 12">
			<path d="M11.9574 0L5.54258 8.28482L1.75 4.57232L0 6.28661L5.83242 12L14 1.71429L11.9574 0Z" />
		</symbol>
		<!--  -->
		<!--  -->
		<!--  -->
		<!--  -->
		<symbol id="cross" width="100%" height="100%" viewBox="0 0 348.333 348.334">
			<path d="M336.559,68.611L231.016,174.165l105.543,105.549c15.699,15.705,15.699,41.145,0,56.85
		c-7.844,7.844-18.128,11.769-28.407,11.769c-10.296,0-20.581-3.919-28.419-11.769L174.167,231.003L68.609,336.563
		c-7.843,7.844-18.128,11.769-28.416,11.769c-10.285,0-20.563-3.919-28.413-11.769c-15.699-15.698-15.699-41.139,0-56.85
		l105.54-105.549L11.774,68.611c-15.699-15.699-15.699-41.145,0-56.844c15.696-15.687,41.127-15.687,56.829,0l105.563,105.554
		L279.721,11.767c15.705-15.687,41.139-15.687,56.832,0C352.258,27.466,352.258,52.912,336.559,68.611z" />
		</symbol>
		<!--  -->
		<symbol id="contact-phone" width="100%" height="100%" viewBox="0 0 40 40">
			<path d="M21.3333 10.6665C20.5973 10.6665 20 11.2638 20 11.9998C20 12.7358 20.5973 13.3332 21.3333 13.3332C24.2747 13.3332 26.6667 15.7252 26.6667 18.6665C26.6667 19.4025 27.264 19.9998 28 19.9998C28.736 19.9998 29.3333 19.4025 29.3333 18.6665C29.3333 14.2558 25.744 10.6665 21.3333 10.6665Z" />
			<path d="M21.3333 5.3335C20.5973 5.3335 20 5.93083 20 6.66683C20 7.40283 20.5973 8.00016 21.3333 8.00016C27.216 8.00016 32 12.7842 32 18.6668C32 19.4028 32.5973 20.0002 33.3333 20.0002C34.0693 20.0002 34.6667 19.4028 34.6667 18.6668C34.6667 11.3148 28.6853 5.3335 21.3333 5.3335Z" />
			<path d="M21.3333 0C20.5973 0 20 0.597333 20 1.33333C20 2.06933 20.5973 2.66667 21.3333 2.66667C30.1573 2.66667 37.3333 9.84267 37.3333 18.6667C37.3333 19.4027 37.9307 20 38.6667 20C39.4027 20 40 19.4027 40 18.6667C40 8.37333 31.624 0 21.3333 0Z" />
			<path d="M36 29.3337C32.128 29.3337 28.44 28.491 25.04 26.8297C24.72 26.6697 24.352 26.651 24.0187 26.7683C23.6827 26.8857 23.408 27.131 23.2533 27.4483L21.1573 31.787C15.7333 28.7603 11.2427 24.2723 8.21867 18.8483L12.5547 16.747C12.8747 16.5923 13.1173 16.3177 13.2347 15.9817C13.3493 15.6483 13.328 15.2803 13.1707 14.9603C11.5093 11.5603 10.6667 7.87233 10.6667 4.00033C10.6667 3.26433 10.0693 2.66699 9.33333 2.66699H1.33333C0.597333 2.66699 0 3.26433 0 4.00033C0 23.851 16.1493 40.0003 36 40.0003C36.736 40.0003 37.3333 39.403 37.3333 38.667V30.667C37.3333 29.931 36.736 29.3337 36 29.3337Z" />
		</symbol>
		<!--  -->
		<symbol id="address-mark" width="100%" height="100%" viewBox="0 0 40 40">
			<path d="M15.4295 0.0101807C7.46091 0.289027 0.840946 6.48925 0.076155 14.4036C-0.0800926 15.9864 0.0103667 17.5201 0.289968 18.9881C0.289968 18.9881 0.314638 19.1604 0.396874 19.4884C0.643581 20.5874 1.01364 21.6536 1.47416 22.6541C3.07775 26.4432 6.78658 32.7828 15.1088 39.6801C15.6187 40.1066 16.367 40.1066 16.8851 39.6801C25.2073 32.791 28.9162 26.4514 30.528 22.6459C30.9967 21.6454 31.3586 20.5874 31.6053 19.4802C31.6793 19.1604 31.7122 18.9799 31.7122 18.9799C31.9013 17.9958 32 16.987 32 15.9536C32 6.94853 24.5248 -0.309672 15.4295 0.0101807ZM15.997 23.8925C11.7043 23.8925 8.2257 20.4234 8.2257 16.1423C8.2257 11.8611 11.7043 8.39197 15.997 8.39197C20.2897 8.39197 23.7682 11.8611 23.7682 16.1423C23.7682 20.4234 20.2897 23.8925 15.997 23.8925Z" />
		</symbol>
		<!--  -->
		<!--  -->
		<symbol id="envelope" width="100%" height="100%" viewBox="0 0 40 32">
			<path d="M3.83921 9.9736C4.34521 10.3307 5.87046 11.3911 8.41505 13.1544C10.9597 14.9178 12.9091 16.2755 14.2633 17.2276C14.4121 17.332 14.7282 17.5589 15.2117 17.9086C15.6954 18.2586 16.0972 18.5413 16.417 18.757C16.737 18.9727 17.1238 19.2146 17.5779 19.4823C18.0318 19.7499 18.4597 19.9511 18.8615 20.0843C19.2634 20.2187 19.6354 20.2852 19.9776 20.2852H20H20.0225C20.3647 20.2852 20.7369 20.2186 21.1387 20.0843C21.5403 19.9511 21.9686 19.7496 22.4222 19.4823C22.8759 19.2143 23.2628 18.9726 23.5828 18.757C23.9028 18.5413 24.3043 18.2586 24.7881 17.9086C25.2716 17.5586 25.5881 17.332 25.7368 17.2276C27.1057 16.2755 30.5881 13.8572 36.1831 9.97313C37.2694 9.21453 38.1769 8.29917 38.906 7.22769C39.6356 6.15667 40 5.03312 40 3.85765C40 2.87537 39.6464 2.03452 38.9395 1.33518C38.2326 0.635685 37.3954 0.286133 36.4285 0.286133H3.57128C2.42552 0.286133 1.54378 0.672978 0.926223 1.44667C0.308741 2.22051 0 3.18778 0 4.3484C0 5.28588 0.409362 6.30178 1.22769 7.39547C2.04595 8.48924 2.91674 9.34869 3.83921 9.9736Z" />
			<path d="M37.7675 12.3613C32.8871 15.6646 29.1813 18.2318 26.6519 20.0623C25.8037 20.6871 25.1156 21.1748 24.5871 21.5243C24.0587 21.874 23.3559 22.2311 22.4778 22.5955C21.6 22.9605 20.7819 23.1424 20.0228 23.1424H20H19.9776C19.2187 23.1424 18.4001 22.9605 17.5223 22.5955C16.6445 22.2311 15.9412 21.874 15.413 21.5243C14.8848 21.1748 14.1965 20.6871 13.3484 20.0623C11.3394 18.5892 7.64151 16.0219 2.25469 12.3613C1.40626 11.7962 0.654774 11.1485 0 10.4194V28.1421C0 29.1249 0.349552 29.9653 1.04905 30.6647C1.74838 31.3643 2.58931 31.714 3.57151 31.714H36.4287C37.4107 31.714 38.2516 31.3643 38.951 30.6647C39.6506 29.965 40 29.125 40 28.1421V10.4194C39.36 11.1334 38.6162 11.7811 37.7675 12.3613Z" />
		</symbol>
		<!--  -->
		<symbol id="play" width="100%" height="100%" viewBox="0 0 47 52">
			<path d="M44.2443 21.5775L8.19476 0.660181C5.26574 -1.03853 0.780029 0.609923 0.780029 4.81147V46.636C0.780029 50.4053 4.94826 52.677 8.19476 50.7873L44.2443 29.8801C47.4601 28.0205 47.4703 23.437 44.2443 21.5775Z" />
		</symbol>
		<!--  -->
		<!--  -->
		<symbol id="phone" width="100%" height="100%" viewBox="0 0 17 18">
			<path d="M11.4099 12.425L12.8099 11.025C12.9984 10.8388 13.237 10.7113 13.4966 10.6581C13.7562 10.6048 14.0257 10.6281 14.2724 10.725L15.9786 11.4063C16.2279 11.5074 16.4416 11.6801 16.5929 11.9026C16.7441 12.125 16.8262 12.3873 16.8286 12.6563V15.7813C16.8272 15.9643 16.7887 16.1451 16.7156 16.3128C16.6424 16.4805 16.536 16.6317 16.4029 16.7573C16.2698 16.8828 16.1126 16.9801 15.9409 17.0433C15.7691 17.1065 15.5864 17.1343 15.4036 17.125C3.44739 16.3813 1.03489 6.25627 0.578636 2.38128C0.557456 2.19099 0.576808 1.99837 0.635416 1.81609C0.694025 1.63382 0.790562 1.46602 0.918678 1.32374C1.04679 1.18145 1.20358 1.0679 1.37873 0.990565C1.55388 0.913227 1.74342 0.873851 1.93489 0.875026H4.95364C5.22302 0.875823 5.486 0.957193 5.70876 1.10867C5.93152 1.26015 6.10387 1.4748 6.20364 1.72503L6.88489 3.43128C6.98504 3.67694 7.0106 3.94668 6.95835 4.20678C6.90611 4.46689 6.77839 4.70584 6.59114 4.89378L5.19114 6.29378C5.19114 6.29378 5.99739 11.75 11.4099 12.425Z" />
		</symbol>
		<!--  -->
		<!--  -->
		<symbol id="contact-phone" width="100%" height="100%" viewBox="0 0 40 40">
			<path d="M21.3333 10.6665C20.5973 10.6665 20 11.2638 20 11.9998C20 12.7358 20.5973 13.3332 21.3333 13.3332C24.2747 13.3332 26.6667 15.7252 26.6667 18.6665C26.6667 19.4025 27.264 19.9998 28 19.9998C28.736 19.9998 29.3333 19.4025 29.3333 18.6665C29.3333 14.2558 25.744 10.6665 21.3333 10.6665Z" />
			<path d="M21.3333 5.3335C20.5973 5.3335 20 5.93083 20 6.66683C20 7.40283 20.5973 8.00016 21.3333 8.00016C27.216 8.00016 32 12.7842 32 18.6668C32 19.4028 32.5973 20.0002 33.3333 20.0002C34.0693 20.0002 34.6667 19.4028 34.6667 18.6668C34.6667 11.3148 28.6853 5.3335 21.3333 5.3335Z" />
			<path d="M21.3333 0C20.5973 0 20 0.597333 20 1.33333C20 2.06933 20.5973 2.66667 21.3333 2.66667C30.1573 2.66667 37.3333 9.84267 37.3333 18.6667C37.3333 19.4027 37.9307 20 38.6667 20C39.4027 20 40 19.4027 40 18.6667C40 8.37333 31.624 0 21.3333 0Z" />
			<path d="M36 29.3337C32.128 29.3337 28.44 28.491 25.04 26.8297C24.72 26.6697 24.352 26.651 24.0187 26.7683C23.6827 26.8857 23.408 27.131 23.2533 27.4483L21.1573 31.787C15.7333 28.7603 11.2427 24.2723 8.21867 18.8483L12.5547 16.747C12.8747 16.5923 13.1173 16.3177 13.2347 15.9817C13.3493 15.6483 13.328 15.2803 13.1707 14.9603C11.5093 11.5603 10.6667 7.87233 10.6667 4.00033C10.6667 3.26433 10.0693 2.66699 9.33333 2.66699H1.33333C0.597333 2.66699 0 3.26433 0 4.00033C0 23.851 16.1493 40.0003 36 40.0003C36.736 40.0003 37.3333 39.403 37.3333 38.667V30.667C37.3333 29.931 36.736 29.3337 36 29.3337Z" />
		</symbol>
		<!--  -->
		<!--  -->
		<symbol id="address" width="100%" height="100%" viewBox="0 0 32 40">
			<path d="M15.4295 0.0101807C7.46091 0.289027 0.840946 6.48925 0.076155 14.4036C-0.0800926 15.9864 0.0103667 17.5201 0.289968 18.9881C0.289968 18.9881 0.314638 19.1604 0.396874 19.4884C0.643581 20.5874 1.01364 21.6536 1.47416 22.6541C3.07775 26.4432 6.78658 32.7828 15.1088 39.6801C15.6187 40.1066 16.367 40.1066 16.8851 39.6801C25.2073 32.791 28.9162 26.4514 30.528 22.6459C30.9967 21.6454 31.3586 20.5874 31.6053 19.4802C31.6793 19.1604 31.7122 18.9799 31.7122 18.9799C31.9013 17.9958 32 16.987 32 15.9536C32 6.94853 24.5248 -0.309672 15.4295 0.0101807ZM15.997 23.8925C11.7043 23.8925 8.2257 20.4234 8.2257 16.1423C8.2257 11.8611 11.7043 8.39197 15.997 8.39197C20.2897 8.39197 23.7682 11.8611 23.7682 16.1423C23.7682 20.4234 20.2897 23.8925 15.997 23.8925Z" />
		</symbol>
		<!--  -->
		<!--  -->
		<symbol id="slider-arrow" width="100%" height="100%" viewBox="0 0 11 18">
			<path d="M7.23223 9L1.11612 2.88388C0.627961 2.39573 0.627961 1.60427 1.11612 1.11612C1.60427 0.627961 2.39573 0.627961 2.88388 1.11612L9.88388 8.11612C10.372 8.60427 10.372 9.39573 9.88388 9.88388L2.88388 16.8839C2.39573 17.372 1.60427 17.372 1.11612 16.8839C0.627961 16.3957 0.627961 15.6043 1.11612 15.1161L7.23223 9Z" />
		</symbol>
		<!--  -->
		<symbol id="grid-alt" width="100%" height="100%" viewBox="0 0 28 28">
			<path d="M22.1667 0H5.83333C4.28681 0.0018525 2.80415 0.617029 1.71059 1.71059C0.617029 2.80415 0.0018525 4.28681 0 5.83333L0 22.1667C0.0018525 23.7132 0.617029 25.1959 1.71059 26.2894C2.80415 27.383 4.28681 27.9981 5.83333 28H22.1667C23.7132 27.9981 25.1959 27.383 26.2894 26.2894C27.383 25.1959 27.9981 23.7132 28 22.1667V5.83333C27.9981 4.28681 27.383 2.80415 26.2894 1.71059C25.1959 0.617029 23.7132 0.0018525 22.1667 0V0ZM18.6667 12.8333H15.1667V9.33333H18.6667V12.8333ZM21 9.33333H25.6667V12.8333H21V9.33333ZM15.1667 7V2.33333H18.6667V7H15.1667ZM12.8333 7H9.33333V2.33333H12.8333V7ZM12.8333 9.33333V12.8333H9.33333V9.33333H12.8333ZM7 12.8333H2.33333V9.33333H7V12.8333ZM2.33333 15.1667H7V18.6667H2.33333V15.1667ZM9.33333 15.1667H12.8333V18.6667H9.33333V15.1667ZM12.8333 21V25.6667H9.33333V21H12.8333ZM15.1667 21H18.6667V25.6667H15.1667V21ZM15.1667 18.6667V15.1667H18.6667V18.6667H15.1667ZM21 15.1667H25.6667V18.6667H21V15.1667ZM25.6667 5.83333V7H21V2.33333H22.1667C23.0949 2.33333 23.9852 2.70208 24.6415 3.35846C25.2979 4.01484 25.6667 4.90508 25.6667 5.83333ZM5.83333 2.33333H7V7H2.33333V5.83333C2.33333 4.90508 2.70208 4.01484 3.35846 3.35846C4.01484 2.70208 4.90508 2.33333 5.83333 2.33333ZM2.33333 22.1667V21H7V25.6667H5.83333C4.90508 25.6667 4.01484 25.2979 3.35846 24.6415C2.70208 23.9852 2.33333 23.0949 2.33333 22.1667ZM22.1667 25.6667H21V21H25.6667V22.1667C25.6667 23.0949 25.2979 23.9852 24.6415 24.6415C23.9852 25.2979 23.0949 25.6667 22.1667 25.6667Z" />
		</symbol>
		<!--  -->
		<symbol id="stand" width="100%" height="100%" viewBox="0 0 24 24">
			<path d="M15.7825 1.00354L7.60978 1.00354C6.65961 1.02644 5.7547 1.4141 5.08263 2.08617C4.41057 2.75823 4.0229 3.66315 4 4.61332C3.9998 5.08751 4.09306 5.55709 4.27443 5.99522C4.45581 6.43335 4.72175 6.83145 5.05705 7.16675C5.39236 7.50206 5.79045 7.768 6.22858 7.94937C6.66672 8.13074 7.1363 8.224 7.61049 8.2238L10.6963 8.2238V16.5592L7.60978 16.5599C6.65961 16.5828 5.7547 16.9705 5.08263 17.6425C4.41057 18.3146 4.0229 19.2195 4 20.1697C3.99981 20.6439 4.09306 21.1134 4.27443 21.5516C4.45581 21.9897 4.72175 22.3878 5.05705 22.7231C5.39236 23.0584 5.79045 23.3243 6.22858 23.5057C6.66672 23.6871 7.1363 23.7803 7.61049 23.7802C7.61049 23.7802 9.49122 23.7802 10.6963 23.7802L15.7825 23.7794C16.2566 23.7795 16.726 23.6862 17.164 23.5049C17.602 23.3235 18 23.0576 18.3352 22.7224C18.6705 22.3872 18.9364 21.9892 19.1177 21.5512C19.2991 21.1132 19.3924 20.6437 19.3923 20.1697C19.3925 19.6956 19.2993 19.226 19.118 18.788C18.9367 18.3499 18.6708 17.9519 18.3355 17.6166C18.0003 17.2814 17.6023 17.0155 17.1642 16.8342C16.7261 16.6529 16.2566 16.5597 15.7825 16.5599L12.6967 16.5599L12.7002 8.21956L15.7861 8.21956C16.2601 8.21966 16.7296 8.12636 17.1676 7.94499C17.6056 7.76362 18.0036 7.49773 18.3388 7.16251C18.674 6.82729 18.9399 6.42931 19.1213 5.99131C19.3026 5.5533 19.3959 5.08385 19.3958 4.60978C19.3961 4.13567 19.3029 3.66617 19.1215 3.2281C18.9402 2.79004 18.6743 2.392 18.3391 2.05676C18.0038 1.72151 17.6058 1.45563 17.1677 1.2743C16.7297 1.09298 16.2602 0.999766 15.7861 1L15.7825 1.00354ZM16.9217 19.0312C17.0715 19.1804 17.1903 19.3579 17.2711 19.5533C17.3519 19.7487 17.3932 19.9582 17.3926 20.1697C17.3832 20.5937 17.2105 20.9978 16.9106 21.2978C16.6107 21.5977 16.2066 21.7703 15.7825 21.7797H7.60978C7.18276 21.7797 6.77323 21.6101 6.47128 21.3082C6.16933 21.0062 5.9997 20.5967 5.9997 20.1697C5.9997 19.7426 6.16933 19.3331 6.47128 19.0312C6.77323 18.7292 7.18276 18.5596 7.60978 18.5596L15.7825 18.5596C15.9942 18.559 16.2038 18.6003 16.3993 18.6813C16.5949 18.7622 16.7724 18.8812 16.9217 19.0312ZM17.3926 4.61332C17.3832 5.03738 17.2105 5.44147 16.9106 5.74141C16.6107 6.04134 16.2066 6.21399 15.7825 6.2234H7.60978C7.39834 6.2234 7.18897 6.18175 6.99363 6.10084C6.79829 6.01992 6.62079 5.90133 6.47128 5.75182C6.32177 5.60231 6.20317 5.42481 6.12226 5.22947C6.04134 5.03412 5.9997 4.82475 5.9997 4.61332C5.9997 4.40188 6.04134 4.19251 6.12226 3.99716C6.20317 3.80182 6.32177 3.62433 6.47128 3.47482C6.62079 3.32531 6.79829 3.20671 6.99363 3.12579C7.18897 3.04488 7.39834 3.00323 7.60978 3.00323L15.7825 3.00323C15.994 3.00309 16.2034 3.04464 16.3988 3.1255C16.5942 3.20637 16.7718 3.32496 16.9213 3.4745C17.0709 3.62404 17.1895 3.80159 17.2703 3.997C17.3512 4.1924 17.3927 4.40184 17.3926 4.61332Z" />
			<path d="M10.5 17.2802C10.5 16.7279 10.9477 16.2802 11.5 16.2802C12.0523 16.2802 12.5 16.7279 12.5 17.2802V18.2802C12.5 18.8324 12.0523 19.2802 11.5 19.2802C10.9477 19.2802 10.5 18.8324 10.5 18.2802V17.2802Z" />
		</symbol>
		<!--  -->
		<symbol id="layers" width="100%" height="100%" viewBox="0 0 24 24">
			<path d="M22.485 10.975L12 17.267L1.515 10.975C1.28758 10.8386 1.01526 10.7981 0.757962 10.8624C0.500662 10.9267 0.279453 11.0906 0.143 11.318C0.00654566 11.5455 -0.0339759 11.8178 0.030349 12.0751C0.094674 12.3324 0.258576 12.5536 0.486 12.69L11.486 19.29C11.6415 19.3835 11.8196 19.4328 12.001 19.4328C12.1824 19.4328 12.3605 19.3835 12.516 19.29L23.516 12.69C23.7434 12.5536 23.9073 12.3324 23.9717 12.0751C24.036 11.8178 23.9955 11.5455 23.859 11.318C23.7225 11.0906 23.5013 10.9267 23.244 10.8624C22.9867 10.7981 22.7144 10.8386 22.487 10.975H22.485Z" />
			<path d="M22.485 15.5431L12 21.8341L1.515 15.5431C1.40239 15.4756 1.27757 15.4309 1.14768 15.4115C1.01779 15.3922 0.885361 15.3986 0.757959 15.4305C0.630557 15.4623 0.510676 15.519 0.40516 15.5972C0.299645 15.6753 0.210562 15.7735 0.142997 15.8861C0.0754315 15.9988 0.0307078 16.1236 0.0113792 16.2535C-0.00794938 16.3834 -0.00150444 16.5158 0.0303461 16.6432C0.094671 16.9005 0.258573 17.1217 0.485997 17.2581L11.486 23.8581C11.6415 23.9516 11.8196 24.001 12.001 24.001C12.1824 24.001 12.3605 23.9516 12.516 23.8581L23.516 17.2581C23.7434 17.1217 23.9073 16.9005 23.9716 16.6432C24.036 16.3859 23.9954 16.1136 23.859 15.8861C23.7225 15.6587 23.5013 15.4948 23.244 15.4305C22.9867 15.3662 22.7144 15.4067 22.487 15.5431H22.485Z" />
			<path d="M12.0002 14.7731C11.4608 14.7728 10.9316 14.6259 10.4692 14.3481L0.485172 8.35706C0.33732 8.26815 0.214983 8.14251 0.130053 7.99234C0.0451225 7.84217 0.000488281 7.67258 0.000488281 7.50006C0.000488281 7.32753 0.0451225 7.15794 0.130053 7.00777C0.214983 6.8576 0.33732 6.73196 0.485172 6.64306L10.4692 0.652056C10.9315 0.374285 11.4608 0.227539 12.0002 0.227539C12.5396 0.227539 13.0688 0.374285 13.5312 0.652056L23.5152 6.64306C23.663 6.73196 23.7854 6.8576 23.8703 7.00777C23.9552 7.15794 23.9999 7.32753 23.9999 7.50006C23.9999 7.67258 23.9552 7.84217 23.8703 7.99234C23.7854 8.14251 23.663 8.26815 23.5152 8.35706L13.5312 14.3481C13.0688 14.6259 12.5396 14.7728 12.0002 14.7731ZM2.94417 7.50006L11.5002 12.6331C11.6513 12.7235 11.8241 12.7712 12.0002 12.7712C12.1763 12.7712 12.3491 12.7235 12.5002 12.6331L21.0562 7.50006L12.5002 2.36706C12.3491 2.27666 12.1763 2.22892 12.0002 2.22892C11.8241 2.22892 11.6513 2.27666 11.5002 2.36706L2.94417 7.50006Z" />
		</symbol>
		<!--  -->
		<symbol id="settings" width="100%" height="100%" viewBox="0 0 24 24">
			<path d="M12 8C11.2089 8 10.4355 8.2346 9.77772 8.67412C9.11993 9.11365 8.60723 9.73836 8.30448 10.4693C8.00173 11.2002 7.92252 12.0044 8.07686 12.7804C8.2312 13.5563 8.61216 14.269 9.17157 14.8284C9.73098 15.3878 10.4437 15.7688 11.2196 15.9231C11.9956 16.0775 12.7998 15.9983 13.5307 15.6955C14.2616 15.3928 14.8864 14.8801 15.3259 14.2223C15.7654 13.5645 16 12.7911 16 12C16 10.9391 15.5786 9.92172 14.8284 9.17157C14.0783 8.42143 13.0609 8 12 8ZM12 14C11.6044 14 11.2178 13.8827 10.8889 13.6629C10.56 13.4432 10.3036 13.1308 10.1522 12.7654C10.0009 12.3999 9.96126 11.9978 10.0384 11.6098C10.1156 11.2219 10.3061 10.8655 10.5858 10.5858C10.8655 10.3061 11.2219 10.1156 11.6098 10.0384C11.9978 9.96126 12.3999 10.0009 12.7654 10.1522C13.1308 10.3036 13.4432 10.56 13.6629 10.8889C13.8827 11.2178 14 11.6044 14 12C14 12.5304 13.7893 13.0391 13.4142 13.4142C13.0391 13.7893 12.5304 14 12 14Z" />
			<path d="M21.2938 13.9L20.8498 13.644C21.0497 12.5564 21.0497 11.4416 20.8498 10.354L21.2938 10.098C21.6352 9.90102 21.9345 9.63871 22.1746 9.32606C22.4147 9.01341 22.5908 8.65654 22.6929 8.27582C22.7951 7.8951 22.8212 7.49799 22.7699 7.10716C22.7186 6.71633 22.5908 6.33944 22.3938 5.998C22.1968 5.65656 21.9345 5.35727 21.6219 5.1172C21.3092 4.87714 20.9523 4.70101 20.5716 4.59886C20.1909 4.49672 19.7938 4.47056 19.403 4.52189C19.0121 4.57321 18.6352 4.70102 18.2938 4.898L17.8488 5.155C17.0083 4.43692 16.0425 3.88025 14.9998 3.513V3C14.9998 2.20435 14.6837 1.44129 14.1211 0.87868C13.5585 0.31607 12.7954 0 11.9998 0C11.2041 0 10.4411 0.31607 9.87848 0.87868C9.31587 1.44129 8.9998 2.20435 8.9998 3V3.513C7.95719 3.88157 6.99165 4.4396 6.1518 5.159L5.7048 4.9C5.01524 4.50218 4.19588 4.39457 3.42698 4.60086C2.65808 4.80715 2.00262 5.31044 1.6048 6C1.20697 6.68956 1.09937 7.50892 1.30566 8.27782C1.51195 9.04672 2.01524 9.70218 2.7048 10.1L3.1488 10.356C2.94891 11.4436 2.94891 12.5584 3.1488 13.646L2.7048 13.902C2.01524 14.2998 1.51195 14.9553 1.30566 15.7242C1.09937 16.4931 1.20697 17.3124 1.6048 18.002C2.00262 18.6916 2.65808 19.1948 3.42698 19.4011C4.19588 19.6074 5.01524 19.4998 5.7048 19.102L6.1498 18.845C6.99056 19.5632 7.95678 20.1199 8.9998 20.487V21C8.9998 21.7956 9.31587 22.5587 9.87848 23.1213C10.4411 23.6839 11.2041 24 11.9998 24C12.7954 24 13.5585 23.6839 14.1211 23.1213C14.6837 22.5587 14.9998 21.7956 14.9998 21V20.487C16.0424 20.1184 17.008 19.5604 17.8478 18.841L18.2948 19.099C18.9844 19.4968 19.8037 19.6044 20.5726 19.3981C21.3415 19.1918 21.997 18.6886 22.3948 17.999C22.7926 17.3094 22.9002 16.4901 22.6939 15.7212C22.4876 14.9523 21.9844 14.2968 21.2948 13.899L21.2938 13.9ZM18.7458 10.124C19.0844 11.3511 19.0844 12.6469 18.7458 13.874C18.6867 14.0876 18.7002 14.3147 18.7841 14.5198C18.8681 14.7249 19.0178 14.8963 19.2098 15.007L20.2938 15.633C20.5236 15.7656 20.6913 15.9841 20.7601 16.2403C20.8288 16.4966 20.7929 16.7697 20.6603 16.9995C20.5277 17.2293 20.3092 17.397 20.053 17.4658C19.7967 17.5345 19.5236 17.4986 19.2938 17.366L18.2078 16.738C18.0157 16.6267 17.792 16.5826 17.572 16.6124C17.3521 16.6423 17.1483 16.7445 16.9928 16.903C16.1027 17.8117 14.9814 18.46 13.7498 18.778C13.5348 18.8333 13.3444 18.9585 13.2084 19.1339C13.0724 19.3094 12.9987 19.525 12.9988 19.747V21C12.9988 21.2652 12.8934 21.5196 12.7059 21.7071C12.5184 21.8946 12.264 22 11.9988 22C11.7336 22 11.4792 21.8946 11.2917 21.7071C11.1042 21.5196 10.9988 21.2652 10.9988 21V19.748C10.9989 19.526 10.9252 19.3104 10.7892 19.1349C10.6532 18.9595 10.4628 18.8343 10.2478 18.779C9.01615 18.4597 7.89513 17.81 7.0058 16.9C6.85032 16.7415 6.64654 16.6393 6.42655 16.6094C6.20657 16.5796 5.9829 16.6237 5.7908 16.735L4.7068 17.362C4.59303 17.4287 4.46719 17.4722 4.33652 17.4901C4.20586 17.508 4.07295 17.4998 3.94545 17.4661C3.81795 17.4324 3.69838 17.3738 3.59362 17.2937C3.48886 17.2136 3.40098 17.1135 3.33504 16.9993C3.26909 16.8851 3.22639 16.759 3.2094 16.6282C3.1924 16.4974 3.20144 16.3646 3.23599 16.2373C3.27054 16.11 3.32993 15.9909 3.41073 15.8866C3.49153 15.7824 3.59215 15.6952 3.7068 15.63L4.7908 15.004C4.98275 14.8933 5.13247 14.7219 5.21646 14.5168C5.30044 14.3117 5.31393 14.0846 5.2548 13.871C4.91616 12.6439 4.91616 11.3481 5.2548 10.121C5.31286 9.90788 5.29873 9.68153 5.21461 9.47729C5.13049 9.27305 4.98111 9.10241 4.7898 8.992L3.7058 8.366C3.47599 8.23339 3.30827 8.01492 3.23954 7.75865C3.17081 7.50239 3.20669 7.22931 3.3393 6.9995C3.47191 6.76969 3.69038 6.60197 3.94664 6.53324C4.20291 6.46451 4.47599 6.50039 4.7058 6.633L5.7918 7.261C5.98338 7.37251 6.20658 7.41721 6.42633 7.38807C6.64607 7.35893 6.84991 7.25759 7.0058 7.1C7.89589 6.19134 9.01722 5.54302 10.2488 5.225C10.4644 5.16956 10.6554 5.04375 10.7914 4.8675C10.9275 4.69125 11.0008 4.47464 10.9998 4.252V3C10.9998 2.73478 11.1052 2.48043 11.2927 2.29289C11.4802 2.10536 11.7346 2 11.9998 2C12.265 2 12.5194 2.10536 12.7069 2.29289C12.8944 2.48043 12.9998 2.73478 12.9998 3V4.252C12.9997 4.47396 13.0734 4.68964 13.2094 4.86508C13.3454 5.04052 13.5358 5.16573 13.7508 5.221C14.9828 5.54015 16.1042 6.18988 16.9938 7.1C17.1493 7.25847 17.3531 7.36069 17.573 7.39057C17.793 7.42044 18.0167 7.37626 18.2088 7.265L19.2928 6.638C19.4066 6.5713 19.5324 6.52777 19.6631 6.5099C19.7937 6.49204 19.9266 6.50019 20.0541 6.5339C20.1816 6.56761 20.3012 6.6262 20.406 6.70631C20.5107 6.78642 20.5986 6.88646 20.6646 7.00067C20.7305 7.11488 20.7732 7.24101 20.7902 7.37179C20.8072 7.50257 20.7982 7.63542 20.7636 7.76269C20.7291 7.88997 20.6697 8.00915 20.5889 8.11337C20.5081 8.2176 20.4074 8.30482 20.2928 8.37L19.2088 8.996C19.0178 9.10671 18.8689 9.27748 18.7851 9.48169C18.7014 9.68591 18.6876 9.9121 18.7458 10.125V10.124Z" />
		</symbol>
		<!--  -->
		<symbol id="square" width="100%" height="100%" viewBox="0 0 24 24">
			<path d="M10.007 3L8 2.986C7.9963 2.19278 7.67859 1.43331 7.11639 0.873724C6.55418 0.314139 5.79323 -8.63726e-06 5 1.78109e-10L3 1.7811e-10C2.20435 1.7811e-10 1.44129 0.31607 0.87868 0.87868C0.31607 1.44129 0 2.20435 0 3L0 5C-2.16263e-06 5.79444 0.315107 6.55644 0.876203 7.11885C1.4373 7.68126 2.19856 7.99815 2.993 8L2.979 9.993C2.97808 10.1244 3.00306 10.2547 3.05253 10.3764C3.102 10.4982 3.17497 10.609 3.26729 10.7025C3.3596 10.796 3.46945 10.8704 3.59054 10.9215C3.71163 10.9725 3.84159 10.9992 3.973 11H3.979C4.24301 11 4.49631 10.8956 4.68364 10.7096C4.87098 10.5236 4.97715 10.271 4.979 10.007L4.993 8H5C5.79565 8 6.55871 7.68393 7.12132 7.12132C7.68393 6.55871 8 5.79565 8 5V4.986L9.993 5H10C10.1313 5.00046 10.2614 4.97505 10.3829 4.92522C10.5045 4.87539 10.6149 4.80212 10.7081 4.70958C10.8013 4.61705 10.8754 4.50707 10.926 4.38592C10.9767 4.26477 11.003 4.13482 11.0035 4.0035C11.004 3.87218 10.9785 3.74205 10.9287 3.62055C10.8789 3.49905 10.8056 3.38855 10.7131 3.29537C10.6205 3.20218 10.5106 3.12814 10.3894 3.07746C10.2683 3.02678 10.1383 3.00046 10.007 3ZM6 5C6 5.26522 5.89464 5.51957 5.70711 5.70711C5.51957 5.89464 5.26522 6 5 6H3C2.73478 6 2.48043 5.89464 2.29289 5.70711C2.10536 5.51957 2 5.26522 2 5V3C2 2.73478 2.10536 2.48043 2.29289 2.29289C2.48043 2.10536 2.73478 2 3 2H5C5.26522 2 5.51957 2.10536 5.70711 2.29289C5.89464 2.48043 6 2.73478 6 3V5Z" />
			<path d="M21.0001 0H19.0001C18.2057 -2.16263e-06 17.4436 0.315107 16.8812 0.876203C16.3188 1.4373 16.0019 2.19856 16.0001 2.993L14.0061 2.979H14.0001C13.7349 2.97807 13.4801 3.08254 13.292 3.26942C13.1038 3.4563 12.9975 3.71028 12.9966 3.9755C12.9957 4.24072 13.1001 4.49544 13.287 4.68363C13.4739 4.87182 13.7279 4.97807 13.9931 4.979L16.0001 4.993V5C16.0001 5.79565 16.3162 6.55871 16.8788 7.12132C17.4414 7.68393 18.2044 8 19.0001 8H19.0141L19.0001 9.993C18.9992 10.1243 19.0241 10.2545 19.0735 10.3762C19.1229 10.4979 19.1958 10.6087 19.288 10.7022C19.3802 10.7957 19.49 10.8701 19.6109 10.9212C19.7319 10.9723 19.8618 10.9991 19.9931 11H20.0001C20.2641 11 20.5174 10.8956 20.7047 10.7096C20.8921 10.5236 20.9982 10.271 21.0001 10.007L21.0141 8C21.8073 7.9963 22.5668 7.67859 23.1264 7.11639C23.6859 6.55418 24.0001 5.79323 24.0001 5V3C24.0001 2.20435 23.684 1.44129 23.1214 0.87868C22.5588 0.31607 21.7957 0 21.0001 0V0ZM22.0001 5C22.0001 5.26522 21.8947 5.51957 21.7072 5.70711C21.5197 5.89464 21.2653 6 21.0001 6H19.0001C18.7349 6 18.4805 5.89464 18.293 5.70711C18.1054 5.51957 18.0001 5.26522 18.0001 5V3C18.0001 2.73478 18.1054 2.48043 18.293 2.29289C18.4805 2.10536 18.7349 2 19.0001 2H21.0001C21.2653 2 21.5197 2.10536 21.7072 2.29289C21.8947 2.48043 22.0001 2.73478 22.0001 3V5Z" />
			<path d="M21.0071 16L21.0211 14.006C21.0219 13.8747 20.9968 13.7445 20.9473 13.6229C20.8977 13.5012 20.8247 13.3905 20.7324 13.2971C20.6401 13.2037 20.5303 13.1294 20.4093 13.0784C20.2883 13.0274 20.1584 13.0008 20.0271 13H20.0211C19.7571 13 19.5038 13.1044 19.3164 13.2904C19.1291 13.4764 19.0229 13.729 19.0211 13.993L19.0071 16H19.0001C18.2044 16 17.4414 16.3161 16.8788 16.8787C16.3162 17.4413 16.0001 18.2044 16.0001 19V19.014L14.0071 19H14.0001C13.7349 18.9991 13.4801 19.1035 13.292 19.2904C13.1038 19.4773 12.9975 19.7313 12.9966 19.9965C12.9957 20.2617 13.1001 20.5164 13.287 20.7046C13.4739 20.8928 13.7279 20.9991 13.9931 21L16.0001 21.014C16.0038 21.8072 16.3215 22.5667 16.8837 23.1263C17.4459 23.6859 18.2069 24 19.0001 24H21.0001C21.7957 24 22.5588 23.6839 23.1214 23.1213C23.684 22.5587 24.0001 21.7956 24.0001 21V19C24.0001 18.2056 23.685 17.4436 23.1239 16.8812C22.5628 16.3187 21.8015 16.0019 21.0071 16ZM22.0001 21C22.0001 21.2652 21.8947 21.5196 21.7072 21.7071C21.5197 21.8946 21.2653 22 21.0001 22H19.0001C18.7349 22 18.4805 21.8946 18.293 21.7071C18.1054 21.5196 18.0001 21.2652 18.0001 21V19C18.0001 18.7348 18.1054 18.4804 18.293 18.2929C18.4805 18.1054 18.7349 18 19.0001 18H21.0001C21.2653 18 21.5197 18.1054 21.7072 18.2929C21.8947 18.4804 22.0001 18.7348 22.0001 19V21Z" />
			<path d="M10.007 19.021L8 19.007V19C8 18.2044 7.68393 17.4413 7.12132 16.8787C6.55871 16.3161 5.79565 16 5 16H4.986L5 14.007C5.00092 13.8757 4.97597 13.7455 4.92656 13.6238C4.87716 13.5021 4.80427 13.3913 4.71206 13.2978C4.61985 13.2043 4.51013 13.1299 4.38915 13.0788C4.26818 13.0277 4.13832 13.0009 4.007 13H4C3.73599 13 3.48269 13.1044 3.29536 13.2904C3.10802 13.4764 3.00185 13.729 3 13.993L2.986 16C2.19278 16.0037 1.43331 16.3214 0.873724 16.8836C0.314139 17.4458 -8.63726e-06 18.2068 1.78109e-10 19L1.78109e-10 21C1.7811e-10 21.7956 0.31607 22.5587 0.87868 23.1213C1.44129 23.6839 2.20435 24 3 24H5C5.79444 24 6.55644 23.6849 7.11885 23.1238C7.68126 22.5627 7.99815 21.8014 8 21.007L9.994 21.021H10C10.2652 21.0219 10.5199 20.9175 10.7081 20.7306C10.8963 20.5437 11.0026 20.2897 11.0035 20.0245C11.0044 19.7593 10.9 19.5046 10.7131 19.3164C10.5262 19.1282 10.2722 19.0219 10.007 19.021ZM6 21C6 21.2652 5.89464 21.5196 5.70711 21.7071C5.51957 21.8946 5.26522 22 5 22H3C2.73478 22 2.48043 21.8946 2.29289 21.7071C2.10536 21.5196 2 21.2652 2 21V19C2 18.7348 2.10536 18.4804 2.29289 18.2929C2.48043 18.1054 2.73478 18 3 18H5C5.26522 18 5.51957 18.1054 5.70711 18.2929C5.89464 18.4804 6 18.7348 6 19V21Z" />
		</symbol>
		<!--  -->
		<symbol id="protractor" width="100%" height="100%" viewBox="0 0 24 24">
			<path d="M21.977 11.264C21.613 5.724 16.474 1.041 10.731 1C10.5556 0.696116 10.3032 0.443739 9.9994 0.268212C9.69557 0.0926844 9.35089 0.00018439 9 0L7 0C5.93913 0 4.92172 0.421427 4.17157 1.17157C3.42143 1.92172 3 2.93913 3 4V20C3 21.0609 3.42143 22.0783 4.17157 22.8284C4.92172 23.5786 5.93913 24 7 24H9C9.35089 23.9998 9.69557 23.9073 9.9994 23.7318C10.3032 23.5563 10.5556 23.3039 10.731 23H11C12.5047 22.9974 13.993 22.6873 15.3736 22.0887C16.7541 21.4901 17.9977 20.6157 19.028 19.519C20.0634 18.4216 20.86 17.1214 21.3676 15.7006C21.8752 14.2797 22.0827 12.7691 21.977 11.264ZM17.568 18.151C16.7297 19.0542 15.7132 19.7737 14.5827 20.2641C13.4522 20.7545 12.2323 21.0051 11 21H10C9.73478 21 9.48043 21.1054 9.29289 21.2929C9.10536 21.4804 9 21.7348 9 22H7C6.46957 22 5.96086 21.7893 5.58579 21.4142C5.21071 21.0391 5 20.5304 5 20V19H6C6.26522 19 6.51957 18.8946 6.70711 18.7071C6.89464 18.5196 7 18.2652 7 18C7 17.7348 6.89464 17.4804 6.70711 17.2929C6.51957 17.1054 6.26522 17 6 17H5V15H6C6.26522 15 6.51957 14.8946 6.70711 14.7071C6.89464 14.5196 7 14.2652 7 14C7 13.7348 6.89464 13.4804 6.70711 13.2929C6.51957 13.1054 6.26522 13 6 13H5V11H6C6.26522 11 6.51957 10.8946 6.70711 10.7071C6.89464 10.5196 7 10.2652 7 10C7 9.73478 6.89464 9.48043 6.70711 9.29289C6.51957 9.10536 6.26522 9 6 9H5V7H6C6.26522 7 6.51957 6.89464 6.70711 6.70711C6.89464 6.51957 7 6.26522 7 6C7 5.73478 6.89464 5.48043 6.70711 5.29289C6.51957 5.10536 6.26522 5 6 5H5V4C5 3.46957 5.21071 2.96086 5.58579 2.58579C5.96086 2.21071 6.46957 2 7 2H9C9 2.26522 9.10536 2.51957 9.29289 2.70711C9.48043 2.89464 9.73478 3 10 3H10.656C15.413 3 19.683 6.844 19.98 11.394C20.0673 12.6259 19.898 13.8625 19.4829 15.0255C19.0677 16.1886 18.4157 17.2529 17.568 18.151ZM11 7C10.4696 7 9.96086 7.21071 9.58579 7.58579C9.21071 7.96086 9 8.46957 9 9V15C9.00615 15.5234 9.21591 16.0238 9.5848 16.3951C9.95368 16.7664 10.4527 16.9794 10.976 16.989C12.2142 16.9754 13.4049 16.511 14.3253 15.6827C15.2457 14.8543 15.8325 13.7189 15.976 12.489C16.0442 11.7945 15.9664 11.0934 15.7474 10.4308C15.5283 9.76824 15.1731 9.15883 14.7044 8.64181C14.2357 8.12479 13.6639 7.71161 13.0259 7.42885C12.388 7.14609 11.6978 7 11 7ZM11 15V9C11.4194 8.99986 11.8341 9.08763 12.2174 9.25766C12.6008 9.42769 12.9442 9.6762 13.2255 9.98715C13.5069 10.2981 13.72 10.6646 13.8509 11.063C13.9819 11.4613 14.0279 11.8827 13.986 12.3C13.8932 13.0327 13.541 13.7079 12.9932 14.2032C12.4454 14.6986 11.7383 14.9812 11 15Z" />
		</symbol>
		<!--  -->
		<symbol id="document-signed" width="100%" height="100%" viewBox="0 0 24 24">
			<path d="M19.535 3.12202L17.879 1.46402C17.4157 0.998333 16.8646 0.629159 16.2576 0.377864C15.6507 0.126569 14.9999 -0.00185599 14.343 2.02654e-05H8C6.67441 0.00160812 5.40356 0.528902 4.46622 1.46624C3.52888 2.40358 3.00159 3.67443 3 5.00002V19C3.00159 20.3256 3.52888 21.5965 4.46622 22.5338C5.40356 23.4711 6.67441 23.9984 8 24H16C17.3256 23.9984 18.5964 23.4711 19.5338 22.5338C20.4711 21.5965 20.9984 20.3256 21 19V6.65702C21.0016 6.00021 20.873 5.34959 20.6215 4.74281C20.37 4.13604 20.0007 3.58515 19.535 3.12202ZM18.121 4.53602C18.2628 4.67734 18.3898 4.83282 18.5 5.00002H16V2.50002C16.1669 2.61134 16.3227 2.7386 16.465 2.88002L18.121 4.53602ZM19 19C19 19.7957 18.6839 20.5587 18.1213 21.1213C17.5587 21.684 16.7956 22 16 22H8C7.20435 22 6.44129 21.684 5.87868 21.1213C5.31607 20.5587 5 19.7957 5 19V5.00002C5 4.20437 5.31607 3.44131 5.87868 2.8787C6.44129 2.31609 7.20435 2.00002 8 2.00002H14V5.00002C14 5.53046 14.2107 6.03916 14.5858 6.41424C14.9609 6.78931 15.4696 7.00002 16 7.00002H19V19ZM16 9.00002C16.2652 9.00002 16.5196 9.10538 16.7071 9.29292C16.8946 9.48045 17 9.73481 17 10C17 10.2652 16.8946 10.5196 16.7071 10.7071C16.5196 10.8947 16.2652 11 16 11H8C7.73478 11 7.48043 10.8947 7.29289 10.7071C7.10536 10.5196 7 10.2652 7 10C7 9.73481 7.10536 9.48045 7.29289 9.29292C7.48043 9.10538 7.73478 9.00002 8 9.00002H16ZM17 14C17 14.2652 16.8946 14.5196 16.7071 14.7071C16.5196 14.8947 16.2652 15 16 15H8C7.73478 15 7.48043 14.8947 7.29289 14.7071C7.10536 14.5196 7 14.2652 7 14C7 13.7348 7.10536 13.4805 7.29289 13.2929C7.48043 13.1054 7.73478 13 8 13H16C16.2652 13 16.5196 13.1054 16.7071 13.2929C16.8946 13.4805 17 13.7348 17 14ZM16.808 17.413C16.9634 17.6269 17.0279 17.8936 16.9872 18.1548C16.9466 18.416 16.8041 18.6505 16.591 18.807C15.5778 19.529 14.3778 19.9432 13.135 20C12.4089 19.9965 11.7048 19.7501 11.135 19.3C10.807 19.075 10.682 19 10.435 19C9.76643 19.1035 9.13562 19.3769 8.603 19.794C8.39175 19.9446 8.13024 20.0072 7.87369 19.9686C7.61715 19.93 7.38565 19.7932 7.22808 19.5871C7.07052 19.381 6.99922 19.1217 7.02925 18.864C7.05927 18.6063 7.18827 18.3704 7.389 18.206C8.27018 17.522 9.32828 17.1036 10.439 17C11.1051 17.0107 11.7491 17.2409 12.271 17.655C12.5089 17.869 12.8152 17.9913 13.135 18C13.9527 17.9388 14.739 17.6594 15.412 17.191C15.6266 17.0355 15.8942 16.9715 16.1559 17.0131C16.4177 17.0547 16.6522 17.1986 16.808 17.413Z" />
		</symbol>
		<!--  -->
		<symbol id="tools" width="100%" height="100%" viewBox="0 0 24 24">
			<path fill-rule="evenodd" clip-rule="evenodd" d="M8.1495 3.45567C7.25412 4.07662 6.5226 4.90536 6.01762 5.87091C5.51264 6.83646 5.24924 7.91004 5.25 8.99967C5.25 11.3967 6.498 13.5027 8.385 14.7027C9.162 15.1947 9.7785 16.0872 9.738 17.1627V17.1747L9.492 22.1802C9.4873 22.3295 9.45292 22.4763 9.39086 22.6122C9.3288 22.7481 9.2403 22.8702 9.13054 22.9715C9.02077 23.0728 8.89193 23.1512 8.75153 23.2022C8.61114 23.2532 8.46199 23.2757 8.3128 23.2684C8.16361 23.2612 8.01736 23.2243 7.88259 23.1599C7.74781 23.0955 7.62721 23.0049 7.52781 22.8934C7.42841 22.7819 7.35222 22.6517 7.30366 22.5105C7.2551 22.3692 7.23516 22.2197 7.245 22.0707L7.4895 17.0757C7.4925 16.9482 7.4145 16.7517 7.179 16.6017C5.89795 15.7897 4.84304 14.6669 4.11239 13.3378C3.38175 12.0087 2.99909 10.5164 3 8.99967C2.99944 7.55027 3.3493 6.12223 4.01975 4.83722C4.6902 3.55222 5.66137 2.44834 6.8505 1.61967C7.21405 1.358 7.64817 1.21227 8.09597 1.20156C8.54377 1.19086 8.98436 1.31568 9.36 1.55967C10.053 2.00367 10.5 2.80017 10.5 3.69417V7.92417C10.5 8.04717 10.5615 8.16417 10.665 8.23317L11.79 8.99817C11.852 9.04008 11.9252 9.06248 12 9.06248C12.0749 9.06248 12.148 9.04008 12.21 8.99817L13.335 8.23317C13.3858 8.19884 13.4274 8.15259 13.4562 8.09846C13.4849 8.04433 13.5 7.98397 13.5 7.92267V3.69417C13.5 2.80017 13.947 2.00367 14.64 1.55967C15.0156 1.31568 15.4562 1.19086 15.904 1.20156C16.3518 1.21227 16.7859 1.358 17.1495 1.61967C18.3386 2.44834 19.3098 3.55222 19.9803 4.83722C20.6507 6.12223 21.0006 7.55027 21 8.99967C21.0009 10.5164 20.6183 12.0087 19.8876 13.3378C19.157 14.6669 18.1021 15.7897 16.821 16.6017C16.5855 16.7517 16.5075 16.9467 16.5105 17.0742L16.755 22.0692C16.7646 22.218 16.7445 22.3673 16.6959 22.5084C16.6473 22.6494 16.5711 22.7794 16.4718 22.8907C16.3725 23.002 16.2521 23.0924 16.1175 23.1568C15.9829 23.2211 15.8368 23.258 15.6879 23.2654C15.5389 23.2727 15.3899 23.2504 15.2496 23.1996C15.1093 23.1489 14.9805 23.0707 14.8708 22.9698C14.761 22.8688 14.6723 22.747 14.6101 22.6114C14.5478 22.4758 14.5131 22.3293 14.508 22.1802L14.262 17.1627C14.2215 16.0872 14.838 15.1947 15.615 14.7027C16.5762 14.0937 17.3678 13.2515 17.9159 12.2543C18.4641 11.2572 18.751 10.1376 18.75 8.99967C18.7508 7.91004 18.4874 6.83646 17.9824 5.87091C17.4774 4.90536 16.7459 4.07662 15.8505 3.45567C15.8145 3.48117 15.75 3.55617 15.75 3.69567V7.92267C15.75 8.35111 15.6452 8.77304 15.4447 9.15164C15.2441 9.53025 14.954 9.85401 14.5995 10.0947L13.4745 10.8597C13.0395 11.155 12.5258 11.3129 12 11.3129C11.4742 11.3129 10.9605 11.155 10.5255 10.8597L9.4005 10.0947C9.04604 9.85401 8.75588 9.53025 8.55533 9.15164C8.35479 8.77304 8.24996 8.35111 8.25 7.92267V3.69417C8.25 3.55617 8.1855 3.48117 8.1495 3.45567Z" />
		</symbol>
		<!--  -->
		<symbol id="computer" width="100%" height="100%" viewBox="0 0 32 32">
			<path d="M30.4375 0H1.5625C0.700938 0 0 0.700938 0 1.5625V23.6263C0 24.4879 0.700938 25.1888 1.5625 25.1888H11.8836V30.125H10.7659C10.2482 30.125 9.82844 30.5448 9.82844 31.0625C9.82844 31.5802 10.2482 32 10.7659 32H21.2341C21.7518 32 22.1716 31.5802 22.1716 31.0625C22.1716 30.5448 21.7518 30.125 21.2341 30.125H20.1164V25.1888H30.4375C31.2991 25.1888 32 24.4879 32 23.6263C32 23.1705 32 2.22594 32 1.5625C32 0.700938 31.2991 0 30.4375 0ZM18.2414 30.125H13.7586V25.1888H18.2414V30.125ZM30.125 23.3138C28.9421 23.3138 3.71419 23.3138 1.875 23.3138V19.8806H30.125V23.3138ZM30.125 18.0056H1.875V1.875H30.125V18.0056Z" />
			<path d="M5.35596 14.7944H13.0226C13.5404 14.7944 13.9601 14.3747 13.9601 13.8569C13.9601 13.3392 13.5404 12.9194 13.0226 12.9194H5.35596C4.83821 12.9194 4.41846 13.3392 4.41846 13.8569C4.41846 14.3747 4.83821 14.7944 5.35596 14.7944Z" />
			<path d="M5.35596 6.96106H13.0226C13.5404 6.96106 13.9601 6.54131 13.9601 6.02356C13.9601 5.50581 13.5404 5.08606 13.0226 5.08606H5.35596C4.83821 5.08606 4.41846 5.50581 4.41846 6.02356C4.41846 6.54131 4.83821 6.96106 5.35596 6.96106Z" />
			<path d="M5.35596 10.8778H13.0226C13.5404 10.8778 13.9601 10.4581 13.9601 9.94031C13.9601 9.42256 13.5404 9.00281 13.0226 9.00281H5.35596C4.83821 9.00281 4.41846 9.42256 4.41846 9.94031C4.41846 10.4581 4.83821 10.8778 5.35596 10.8778Z" />
			<path d="M17.8174 14.7944H26.6443C27.1621 14.7944 27.5818 14.3747 27.5818 13.8569V6.02356C27.5818 5.50581 27.1621 5.08606 26.6443 5.08606H17.8174C17.2996 5.08606 16.8799 5.50581 16.8799 6.02356V13.8569C16.8799 14.3747 17.2996 14.7944 17.8174 14.7944ZM18.7549 6.96106H25.7068V12.9194H18.7549V6.96106Z" />
		</symbol>
		<!--  -->
		<symbol id="direct" width="100%" height="100%" viewBox="0 0 32 32">
			<path d="M30.6456 0.0526278L0.710624 9.83419C-0.13478 10.1104 -0.257036 11.2604 0.51237 11.7077L11.8251 18.2858C12.182 18.4934 12.628 18.4684 12.9594 18.2222L16.1394 15.8606L13.7778 19.0407C13.5317 19.3721 13.5067 19.8182 13.7142 20.175L20.2923 31.4877C20.7402 32.2578 21.8899 32.1342 22.1659 31.2895L31.9475 1.35454C32.2099 0.550748 31.4454 -0.208916 30.6456 0.0526278ZM20.9189 28.4584L15.8408 19.7253L21.9641 11.48C22.2692 11.069 22.2272 10.4966 21.8653 10.1346C21.5034 9.77271 20.9308 9.73065 20.5199 10.0358L12.2746 16.1592L3.54161 11.081L29.3532 2.64677L20.9189 28.4584ZM10.8379 22.6218L3.98398 29.4757C3.58089 29.8787 2.92729 29.8789 2.5242 29.4757C2.12105 29.0726 2.12105 28.419 2.5242 28.0159L9.37814 21.1621C9.78136 20.759 10.435 20.7589 10.8379 21.1621C11.2411 21.5651 11.2411 22.2187 10.8379 22.6218ZM1.78331 22.8812C1.38016 22.478 1.38016 21.8245 1.78331 21.4214L4.48778 18.7169C4.89087 18.3137 5.54447 18.3137 5.94756 18.7169C6.35072 19.12 6.35072 19.7736 5.94756 20.1767L3.24309 22.8812C2.84007 23.2842 2.1864 23.2843 1.78331 22.8812ZM13.2831 26.0524C13.6863 26.4554 13.6863 27.109 13.2831 27.5121L10.5786 30.2166C10.377 30.4182 10.1128 30.519 9.84872 30.519C8.93731 30.519 8.46674 29.4089 9.11886 28.7568L11.8234 26.0524C12.2264 25.6492 12.88 25.6492 13.2831 26.0524Z" />
		</symbol>
		<!--  -->
		<symbol id="comment-alt" width="100%" height="100%" viewBox="0 0 24 24">
			<path d="M20 0H4C2.93913 0 1.92172 0.421427 1.17157 1.17157C0.421427 1.92172 0 2.93913 0 4L0 16C0 17.0609 0.421427 18.0783 1.17157 18.8284C1.92172 19.5786 2.93913 20 4 20H6.9L11.351 23.763C11.5316 23.9158 11.7605 23.9997 11.997 23.9997C12.2335 23.9997 12.4624 23.9158 12.643 23.763L17.1 20H20C21.0609 20 22.0783 19.5786 22.8284 18.8284C23.5786 18.0783 24 17.0609 24 16V4C24 2.93913 23.5786 1.92172 22.8284 1.17157C22.0783 0.421427 21.0609 0 20 0V0ZM22 16C22 16.5304 21.7893 17.0391 21.4142 17.4142C21.0391 17.7893 20.5304 18 20 18H17.1C16.6273 18.0001 16.1699 18.1677 15.809 18.473L12 21.69L8.193 18.473C7.83156 18.1673 7.3734 17.9997 6.9 18H4C3.46957 18 2.96086 17.7893 2.58579 17.4142C2.21071 17.0391 2 16.5304 2 16V4C2 3.46957 2.21071 2.96086 2.58579 2.58579C2.96086 2.21071 3.46957 2 4 2H20C20.5304 2 21.0391 2.21071 21.4142 2.58579C21.7893 2.96086 22 3.46957 22 4V16Z" />
			<path d="M7 7H12C12.2652 7 12.5196 6.89464 12.7071 6.70711C12.8946 6.51957 13 6.26522 13 6C13 5.73478 12.8946 5.48043 12.7071 5.29289C12.5196 5.10536 12.2652 5 12 5H7C6.73478 5 6.48043 5.10536 6.29289 5.29289C6.10536 5.48043 6 5.73478 6 6C6 6.26522 6.10536 6.51957 6.29289 6.70711C6.48043 6.89464 6.73478 7 7 7Z" />
			<path d="M17 9H7C6.73478 9 6.48043 9.10536 6.29289 9.29289C6.10536 9.48043 6 9.73478 6 10C6 10.2652 6.10536 10.5196 6.29289 10.7071C6.48043 10.8946 6.73478 11 7 11H17C17.2652 11 17.5196 10.8946 17.7071 10.7071C17.8946 10.5196 18 10.2652 18 10C18 9.73478 17.8946 9.48043 17.7071 9.29289C17.5196 9.10536 17.2652 9 17 9Z" />
			<path d="M17 13H7C6.73478 13 6.48043 13.1054 6.29289 13.2929C6.10536 13.4804 6 13.7348 6 14C6 14.2652 6.10536 14.5196 6.29289 14.7071C6.48043 14.8946 6.73478 15 7 15H17C17.2652 15 17.5196 14.8946 17.7071 14.7071C17.8946 14.5196 18 14.2652 18 14C18 13.7348 17.8946 13.4804 17.7071 13.2929C17.5196 13.1054 17.2652 13 17 13Z" />
		</symbol>
		<!--  -->
		<symbol id="form" width="100%" height="100%" viewBox="0 0 24 24">
			<path d="M10 10C9.20435 10 8.44129 10.3161 7.87868 10.8787C7.31607 11.4413 7 12.2044 7 13C7 13.7957 7.31607 14.5587 7.87868 15.1213C8.44129 15.6839 9.20435 16 10 16H14C14.7956 16 15.5587 15.6839 16.1213 15.1213C16.6839 14.5587 17 13.7957 17 13C17 12.2044 16.6839 11.4413 16.1213 10.8787C15.5587 10.3161 14.7956 10 14 10H10ZM15 13C15 13.2652 14.8946 13.5196 14.7071 13.7071C14.5196 13.8947 14.2652 14 14 14H10C9.73478 14 9.48043 13.8947 9.29289 13.7071C9.10536 13.5196 9 13.2652 9 13C9 12.7348 9.10536 12.4804 9.29289 12.2929C9.48043 12.1054 9.73478 12 10 12H14C14.2652 12 14.5196 12.1054 14.7071 12.2929C14.8946 12.4804 15 12.7348 15 13ZM17 19C17 19.2652 16.8946 19.5196 16.7071 19.7071C16.5196 19.8947 16.2652 20 16 20H8C7.73478 20 7.48043 19.8947 7.29289 19.7071C7.10536 19.5196 7 19.2652 7 19C7 18.7348 7.10536 18.4804 7.29289 18.2929C7.48043 18.1054 7.73478 18 8 18H16C16.2652 18 16.5196 18.1054 16.7071 18.2929C16.8946 18.4804 17 18.7348 17 19ZM19.536 3.12102L17.878 1.46502C17.4149 0.999266 16.864 0.629977 16.2572 0.378513C15.6504 0.127049 14.9998 -0.00159798 14.343 1.49812e-05H8C6.67441 0.00160284 5.40356 0.528897 4.46622 1.46623C3.52888 2.40357 3.00159 3.67442 3 5.00001V19C3.00159 20.3256 3.52888 21.5965 4.46622 22.5338C5.40356 23.4711 6.67441 23.9984 8 24H16C17.3256 23.9984 18.5964 23.4711 19.5338 22.5338C20.4711 21.5965 20.9984 20.3256 21 19V6.65701C21.0019 6.0001 20.8735 5.34934 20.6222 4.74238C20.3709 4.13543 20.0017 3.58435 19.536 3.12102ZM18.122 4.53501C18.2627 4.67744 18.3893 4.83317 18.5 5.00001H16V2.50002C16.1671 2.60954 16.3226 2.73587 16.464 2.87702L18.122 4.53501ZM19 19C19 19.7957 18.6839 20.5587 18.1213 21.1213C17.5587 21.6839 16.7956 22 16 22H8C7.20435 22 6.44129 21.6839 5.87868 21.1213C5.31607 20.5587 5 19.7957 5 19V5.00001C5 4.20437 5.31607 3.4413 5.87868 2.87869C6.44129 2.31609 7.20435 2.00002 8 2.00002H14V5.00001C14 5.53045 14.2107 6.03916 14.5858 6.41423C14.9609 6.7893 15.4696 7.00001 16 7.00001H19V19Z" />
		</symbol>
		<!--  -->
		<symbol id="document" width="100%" height="100%" viewBox="0 0 24 24">
			<path d="M17 14C17 14.2652 16.8946 14.5196 16.7071 14.7071C16.5196 14.8947 16.2652 15 16 15H8C7.73478 15 7.48043 14.8947 7.29289 14.7071C7.10536 14.5196 7 14.2652 7 14C7 13.7348 7.10536 13.4805 7.29289 13.2929C7.48043 13.1054 7.73478 13 8 13H16C16.2652 13 16.5196 13.1054 16.7071 13.2929C16.8946 13.4805 17 13.7348 17 14ZM13 17H8C7.73478 17 7.48043 17.1054 7.29289 17.2929C7.10536 17.4805 7 17.7348 7 18C7 18.2652 7.10536 18.5196 7.29289 18.7071C7.48043 18.8947 7.73478 19 8 19H13C13.2652 19 13.5196 18.8947 13.7071 18.7071C13.8946 18.5196 14 18.2652 14 18C14 17.7348 13.8946 17.4805 13.7071 17.2929C13.5196 17.1054 13.2652 17 13 17ZM22 10.485V19C21.9984 20.3256 21.4711 21.5965 20.5338 22.5338C19.5964 23.4711 18.3256 23.9984 17 24H7C5.67441 23.9984 4.40356 23.4711 3.46622 22.5338C2.52888 21.5965 2.00159 20.3256 2 19V5.00002C2.00159 3.67443 2.52888 2.40358 3.46622 1.46624C4.40356 0.528905 5.67441 0.00161091 7 2.30487e-05H11.515C12.4346 -0.00234388 13.3456 0.177611 14.1952 0.529482C15.0449 0.881354 15.8163 1.39816 16.465 2.05002L19.949 5.53602C20.6012 6.18426 21.1184 6.95548 21.4704 7.805C21.8225 8.65451 22.0025 9.56545 22 10.485ZM15.051 3.46402C14.7363 3.15918 14.3829 2.89695 14 2.68402V7.00002C14 7.26524 14.1054 7.51959 14.2929 7.70713C14.4804 7.89467 14.7348 8.00002 15 8.00002H19.316C19.103 7.61721 18.8404 7.26417 18.535 6.95002L15.051 3.46402ZM20 10.485C20 10.32 19.968 10.162 19.953 10H15C14.2044 10 13.4413 9.68395 12.8787 9.12134C12.3161 8.55873 12 7.79567 12 7.00002V2.04702C11.838 2.03202 11.679 2.00002 11.515 2.00002H7C6.20435 2.00002 5.44129 2.31609 4.87868 2.8787C4.31607 3.44131 4 4.20437 4 5.00002V19C4 19.7957 4.31607 20.5587 4.87868 21.1213C5.44129 21.684 6.20435 22 7 22H17C17.7956 22 18.5587 21.684 19.1213 21.1213C19.6839 20.5587 20 19.7957 20 19V10.485Z" />
		</symbol>
		<!--  -->
		<symbol id="location-alt" width="100%" height="100%" viewBox="0 0 24 24">
			<path d="M12.0001 16C12.4657 16.0009 12.9252 15.8934 13.3421 15.686L15.3421 14.686C15.8417 14.4379 16.2619 14.0547 16.555 13.58C16.848 13.1052 17.0022 12.5579 17.0001 12V9.03299C17.0018 8.47558 16.8474 7.92882 16.5543 7.45464C16.2613 6.98045 15.8414 6.59779 15.3421 6.34999L13.3421 5.34999C12.9252 5.14281 12.466 5.03499 12.0006 5.03499C11.5351 5.03499 11.0759 5.14281 10.6591 5.34999L8.65906 6.34999C8.15956 6.59765 7.73941 6.98025 7.4462 7.45445C7.15298 7.92864 6.99843 8.47547 7.00006 9.03299V12C6.99827 12.5576 7.15263 13.1045 7.44566 13.5788C7.73868 14.0532 8.15867 14.436 8.65806 14.684L10.6581 15.684C11.0748 15.8921 11.5343 16.0003 12.0001 16ZM9.00006 12V9.03299C9.00165 8.93098 9.01885 8.82981 9.05105 8.73299L11.2311 9.82299C11.4698 9.94234 11.7331 10.0045 12.0001 10.0045C12.267 10.0045 12.5303 9.94234 12.7691 9.82299L14.9491 8.73299C14.9813 8.82981 14.9985 8.93098 15.0001 9.03299V12C15.0008 12.186 14.9494 12.3684 14.8517 12.5267C14.7539 12.6849 14.6137 12.8125 14.4471 12.895L12.4471 13.895C12.3079 13.9638 12.1548 13.9997 11.9996 13.9997C11.8443 13.9997 11.6912 13.9638 11.5521 13.895L9.55206 12.895C9.38557 12.8123 9.24559 12.6847 9.14802 12.5265C9.05044 12.3683 8.99918 12.1859 9.00006 12ZM19.0001 22H16.2911L19.7781 18.778C21.3177 17.2384 22.3658 15.2766 22.7896 13.141C23.2134 11.0053 22.9939 8.79191 22.1589 6.7811C21.3239 4.77028 19.9109 3.0525 18.0989 1.8453C16.287 0.638097 14.1575 -0.00421337 11.9802 -0.000287284C9.80287 0.0036388 7.67572 0.653624 5.8681 1.86735C4.06047 3.08108 2.6537 4.80395 1.82595 6.81776C0.998192 8.83158 0.786686 11.0457 1.21822 13.1799C1.64975 15.314 2.70491 17.272 4.25006 18.806L7.70906 22H5.00006C4.73484 22 4.48049 22.1053 4.29295 22.2929C4.10541 22.4804 4.00006 22.7348 4.00006 23C4.00006 23.2652 4.10541 23.5196 4.29295 23.7071C4.48049 23.8946 4.73484 24 5.00006 24H19.0001C19.2653 24 19.5196 23.8946 19.7072 23.7071C19.8947 23.5196 20.0001 23.2652 20.0001 23C20.0001 22.7348 19.8947 22.4804 19.7072 22.2929C19.5196 22.1053 19.2653 22 19.0001 22ZM5.63606 4.63599C7.32018 2.94431 9.60735 1.99093 11.9944 1.98558C14.3815 1.98024 16.6729 2.92337 18.3646 4.60749C20.0562 6.29162 21.0096 8.57878 21.015 10.9658C21.0203 13.3529 20.0772 15.6443 18.3931 17.336L14.4081 21.017C13.7531 21.6343 12.8862 21.9767 11.9862 21.9736C11.0861 21.9704 10.2217 21.6219 9.57106 21L5.63606 17.364C3.95065 15.6749 3.00411 13.3862 3.00411 11C3.00411 8.61384 3.95065 6.32512 5.63606 4.63599Z" />
		</symbol>
		<!--  -->
		<symbol id="layout-fluid" width="100%" height="100%" viewBox="0 0 24 24">
			<path d="M2 11H13C13.5304 11 14.0391 10.7893 14.4142 10.4142C14.7893 10.0391 15 9.53043 15 9V2C15 1.46957 14.7893 0.960859 14.4142 0.585786C14.0391 0.210714 13.5304 0 13 0L2 0C1.46957 0 0.960859 0.210714 0.585786 0.585786C0.210714 0.960859 0 1.46957 0 2L0 9C0 9.53043 0.210714 10.0391 0.585786 10.4142C0.960859 10.7893 1.46957 11 2 11ZM2 2H13V9H2V2Z" />
			<path d="M22 0H19C18.4696 0 17.9609 0.210714 17.5858 0.585786C17.2107 0.960859 17 1.46957 17 2V9C17 9.53043 17.2107 10.0391 17.5858 10.4142C17.9609 10.7893 18.4696 11 19 11H22C22.5304 11 23.0391 10.7893 23.4142 10.4142C23.7893 10.0391 24 9.53043 24 9V2C24 1.46957 23.7893 0.960859 23.4142 0.585786C23.0391 0.210714 22.5304 0 22 0V0ZM22 9H19V2H22V9Z" />
			<path d="M5 13H2C1.46957 13 0.960859 13.2107 0.585786 13.5858C0.210714 13.9609 0 14.4696 0 15L0 22C0 22.5304 0.210714 23.0391 0.585786 23.4142C0.960859 23.7893 1.46957 24 2 24H5C5.53043 24 6.03914 23.7893 6.41421 23.4142C6.78929 23.0391 7 22.5304 7 22V15C7 14.4696 6.78929 13.9609 6.41421 13.5858C6.03914 13.2107 5.53043 13 5 13ZM5 22H2V15H5V22Z" />
			<path d="M22 13H11C10.4696 13 9.96086 13.2107 9.58579 13.5858C9.21071 13.9609 9 14.4696 9 15V22C9 22.5304 9.21071 23.0391 9.58579 23.4142C9.96086 23.7893 10.4696 24 11 24H22C22.5304 24 23.0391 23.7893 23.4142 23.4142C23.7893 23.0391 24 22.5304 24 22V15C24 14.4696 23.7893 13.9609 23.4142 13.5858C23.0391 13.2107 22.5304 13 22 13ZM22 22H11V15H22V22Z" />
		</symbol>
		<!--  -->
		<symbol id="arrow" width="100%" height="100%" viewBox="0 0 14 13">
			<path fill-rule="evenodd" clip-rule="evenodd" d="M7.2546 0.257037C7.33587 0.17556 7.43242 0.110916 7.53871 0.0668097C7.645 0.0227029 7.75895 0 7.87403 0C7.98911 0 8.10306 0.0227029 8.20936 0.0668097C8.31565 0.110916 8.4122 0.17556 8.49347 0.257037L13.7429 5.5065C13.8244 5.58778 13.8891 5.68432 13.9332 5.79062C13.9773 5.89691 14 6.01086 14 6.12594C14 6.24102 13.9773 6.35497 13.9332 6.46126C13.8891 6.56756 13.8244 6.66411 13.7429 6.74538L8.49347 11.9948C8.32919 12.1591 8.10637 12.2514 7.87403 12.2514C7.6417 12.2514 7.41888 12.1591 7.2546 11.9948C7.09031 11.8306 6.99802 11.6077 6.99802 11.3754C6.99802 11.1431 7.09031 10.9203 7.2546 10.756L11.8864 6.12594L7.2546 1.49591C7.17312 1.41464 7.10848 1.31809 7.06437 1.2118C7.02026 1.10551 6.99756 0.991556 6.99756 0.876475C6.99756 0.761394 7.02026 0.647443 7.06437 0.54115C7.10848 0.434857 7.17312 0.338309 7.2546 0.257037Z" />
			<path fill-rule="evenodd" clip-rule="evenodd" d="M0 6.12589C0 5.89385 0.0921781 5.67131 0.256256 5.50723C0.420333 5.34315 0.64287 5.25098 0.874911 5.25098H12.2488C12.4808 5.25098 12.7033 5.34315 12.8674 5.50723C13.0315 5.67131 13.1237 5.89385 13.1237 6.12589C13.1237 6.35793 13.0315 6.58047 12.8674 6.74454C12.7033 6.90862 12.4808 7.0008 12.2488 7.0008H0.874911C0.64287 7.0008 0.420333 6.90862 0.256256 6.74454C0.0921781 6.58047 0 6.35793 0 6.12589Z" />
		</symbol>
		<!--  -->
		<symbol id="instagram" width="100%" height="100%" viewBox="0 0 32 32">
			<path d="M22 0H10C4.478 0 0 4.478 0 10V22C0 27.522 4.478 32 10 32H22C27.522 32 32 27.522 32 22V10C32 4.478 27.522 0 22 0ZM29 22C29 25.86 25.86 29 22 29H10C6.14 29 3 25.86 3 22V10C3 6.14 6.14 3 10 3H22C25.86 3 29 6.14 29 10V22Z" />
			<path d="M16 8C11.582 8 8 11.582 8 16C8 20.418 11.582 24 16 24C20.418 24 24 20.418 24 16C24 11.582 20.418 8 16 8ZM16 21C13.244 21 11 18.756 11 16C11 13.242 13.244 11 16 11C18.756 11 21 13.242 21 16C21 18.756 18.756 21 16 21Z" />
			<path d="M24.6002 8.46597C25.1889 8.46597 25.6662 7.98871 25.6662 7.39998C25.6662 6.81125 25.1889 6.33398 24.6002 6.33398C24.0114 6.33398 23.5342 6.81125 23.5342 7.39998C23.5342 7.98871 24.0114 8.46597 24.6002 8.46597Z" />
		</symbol>
		<!--  -->
		<symbol id="vk" width="100%" height="100%" viewBox="0 0 32 32">
			<path d="M20.911 0H11.088C2.12402 0 -0.000976562 2.125 -0.000976562 11.089V20.912C-0.000976562 29.876 2.12402 32.001 11.088 32.001H20.911C29.875 32.001 32 29.876 32 20.912V11.089C32 2.125 29.854 0 20.911 0ZM25.833 22.828H23.51C22.63 22.828 22.359 22.13 20.776 20.526C19.401 19.193 18.792 19.016 18.453 19.016C17.974 19.016 17.838 19.151 17.838 19.808V21.907C17.838 22.47 17.661 22.808 16.171 22.808C13.707 22.808 10.973 21.318 9.05602 18.542C6.16502 14.474 5.37402 11.427 5.37402 10.797C5.37402 10.458 5.50902 10.141 6.16002 10.141H8.48802C9.07702 10.141 9.30102 10.412 9.53002 11.042C10.681 14.365 12.598 17.276 13.389 17.276C13.681 17.276 13.816 17.141 13.816 16.396V12.964C13.727 11.381 12.894 11.245 12.894 10.683C12.894 10.412 13.118 10.141 13.477 10.141H17.138C17.633 10.141 17.815 10.412 17.815 10.995V15.625C17.815 16.125 18.039 16.302 18.174 16.302C18.466 16.302 18.716 16.125 19.257 15.583C20.929 13.708 22.127 10.817 22.127 10.817C22.283 10.478 22.554 10.161 23.143 10.161H25.471C26.169 10.161 26.325 10.52 26.169 11.02C25.877 12.374 23.028 16.395 23.028 16.395C22.783 16.801 22.689 16.978 23.028 17.431C23.278 17.77 24.091 18.473 24.632 19.103C25.627 20.233 26.392 21.181 26.596 21.837C26.825 22.488 26.487 22.827 25.83 22.827L25.833 22.828Z" />
		</symbol>
		<!--  -->
		<symbol id="facebook" width="100%" height="100%" viewBox="0 0 32 32">
			<path d="M5.84301 0C2.60624 0 0 2.60624 0 5.84301V26.157C0 29.3938 2.60624 32 5.84301 32H16.853V19.49H13.545V14.986H16.853V11.138C16.853 8.11482 18.8076 5.33901 23.31 5.33901C25.133 5.33901 26.481 5.51402 26.481 5.51402L26.375 9.72003C26.375 9.72003 25.0002 9.70704 23.5 9.70704C21.8764 9.70704 21.616 10.4551 21.616 11.6971V14.986H26.504L26.291 19.49H21.616V32.0001H26.157C29.3938 32.0001 32 29.3938 32 26.1571V5.84304C32 2.60627 29.3938 3.2e-05 26.157 3.2e-05H5.84298L5.84301 0Z" />
		</symbol>
		<!--  -->
		<symbol id="menu" width="100%" height="100%" viewBox="0 -96 512 512">
			<path d="m32 0h448c17.671875 0 32 14.328125 32 32s-14.328125 32-32 32h-448c-17.671875 0-32-14.328125-32-32s14.328125-32 32-32zm0 0" />
			<path d="m32 128h448c17.671875 0 32 14.328125 32 32s-14.328125 32-32 32h-448c-17.671875 0-32-14.328125-32-32s14.328125-32 32-32zm0 0" />
			<path d="m32 256h448c17.671875 0 32 14.328125 32 32s-14.328125 32-32 32h-448c-17.671875 0-32-14.328125-32-32s14.328125-32 32-32zm0 0" />
		</symbol>
		<!--  -->
		<symbol id="like" width="100%" height="100%" viewBox="0 0 33 34">
			<path d="M0.200195 18.0499C0.200195 16.3103 1.6105 14.8999 3.3502 14.8999C5.08989 14.8999 6.5002 16.3103 6.5002 18.0499V30.6499C6.5002 32.3896 5.08989 33.7999 3.3502 33.7999C1.6105 33.7999 0.200195 32.3896 0.200195 30.6499V18.0499Z" />
			<path d="M8.60019 17.6999V29.1042C8.60019 30.695 9.49901 32.1494 10.9219 32.8608L11.0266 32.9131C12.193 33.4963 13.4791 33.7999 14.7832 33.7999H26.157C28.1591 33.7999 29.8828 32.3868 30.2755 30.4236L32.7955 17.8236C33.3152 15.2247 31.3274 12.7999 28.677 12.7999H21.2002V4.39995C21.2002 2.08036 19.3198 0.199951 17.0002 0.199951C15.8404 0.199951 14.9002 1.14015 14.9002 2.29995V3.69995C14.9002 5.51746 14.3107 7.28594 13.2202 8.73995L10.2802 12.6599C9.18969 14.114 8.60019 15.8824 8.60019 17.6999Z" />
		</symbol>
		<!--  -->
		<symbol id="idea" width="100%" height="100%" viewBox="0 0 34 34">
			<path d="M19.1002 2.29995C19.1002 1.14015 18.16 0.199951 17.0002 0.199951C15.8404 0.199951 14.9002 1.14015 14.9002 2.29995V4.39995C14.9002 5.55975 15.8404 6.49995 17.0002 6.49995C18.16 6.49995 19.1002 5.55975 19.1002 4.39995V2.29995Z" />
			<path d="M28.8795 8.09029C29.6996 7.27019 29.6996 5.94055 28.8795 5.12045C28.0594 4.30035 26.7298 4.30035 25.9097 5.12045L24.4247 6.60537C23.6046 7.42547 23.6046 8.75512 24.4247 9.57522C25.2448 10.3953 26.5745 10.3953 27.3946 9.57522L28.8795 8.09029Z" />
			<path d="M33.8002 17C33.8002 18.1597 32.86 19.1 31.7002 19.1H29.6002C28.4404 19.1 27.5002 18.1597 27.5002 17C27.5002 15.8402 28.4404 14.9 29.6002 14.9H31.7002C32.86 14.9 33.8002 15.8402 33.8002 17Z" />
			<path d="M6.60559 9.57526C7.42569 10.3954 8.75534 10.3954 9.57544 9.57526C10.3955 8.75516 10.3955 7.42551 9.57544 6.60541L8.09051 5.12048C7.27041 4.30038 5.94077 4.30038 5.12067 5.12048C4.30057 5.94058 4.30057 7.27023 5.12067 8.09033L6.60559 9.57526Z" />
			<path d="M6.5002 17C6.5002 18.1597 5.55999 19.1 4.4002 19.1H2.3002C1.1404 19.1 0.200195 18.1597 0.200195 17C0.200195 15.8402 1.1404 14.9 2.3002 14.9H4.4002C5.55999 14.9 6.5002 15.8402 6.5002 17Z" />
			<path d="M12.8002 29.5999V27.5H21.2002V29.5999C21.2002 31.9195 19.3198 33.7999 17.0002 33.7999C14.6806 33.7999 12.8002 31.9195 12.8002 29.5999Z" />
			<path d="M21.2021 25.4C21.2327 24.6853 21.6361 24.0427 22.2015 23.5963C24.1498 22.058 25.4002 19.675 25.4002 17C25.4002 12.3608 21.6394 8.59995 17.0002 8.59995C12.361 8.59995 8.60019 12.3608 8.60019 17C8.60019 19.675 9.85063 22.058 11.7989 23.5963C12.3642 24.0427 12.7677 24.6853 12.7983 25.4H21.2021Z" />
		</symbol>
		<!--  -->
		<symbol id="shield-check" width="100%" height="100%" viewBox="0 0 34 35">
			<path fill-rule="evenodd" clip-rule="evenodd" d="M0.549021 6.49759C6.86638 6.41188 12.6223 4.00159 17.0002 0.083252C21.3781 4.00158 27.134 6.41188 33.4514 6.49759C33.6808 7.86422 33.8002 9.26814 33.8002 10.7C33.8002 21.6721 26.7878 31.0065 17.0002 34.4659C7.21258 31.0065 0.200195 21.6721 0.200195 10.7C0.200195 9.26814 0.319609 7.86421 0.549021 6.49759ZM24.7851 14.2848C25.6052 13.4647 25.6052 12.1351 24.7851 11.315C23.965 10.4949 22.6354 10.4949 21.8153 11.315L14.9002 18.23L12.1851 15.515C11.365 14.6949 10.0354 14.6949 9.21527 15.515C8.39517 16.3351 8.39517 17.6647 9.21527 18.4848L13.4153 22.6848C14.2354 23.5049 15.565 23.5049 16.3851 22.6848L24.7851 14.2848Z" />
		</symbol>
		<!--  -->
		<symbol id="document-text" width="100%" height="100%" viewBox="0 0 26 34">
			<path fill-rule="evenodd" clip-rule="evenodd" d="M0.400391 4.39995C0.400391 2.08036 2.28079 0.199951 4.60039 0.199951H14.2305C15.3445 0.199951 16.4127 0.64245 17.2004 1.4301L24.3702 8.59995C25.1579 9.3876 25.6004 10.4559 25.6004 11.5698V29.5999C25.6004 31.9195 23.72 33.7999 21.4004 33.7999H4.60039C2.28079 33.7999 0.400391 31.9195 0.400391 29.5999V4.39995ZM4.60039 17C4.60039 15.8402 5.54059 14.9 6.70039 14.9H19.3004C20.4602 14.9 21.4004 15.8402 21.4004 17C21.4004 18.1597 20.4602 19.1 19.3004 19.1H6.70039C5.54059 19.1 4.60039 18.1597 4.60039 17ZM6.70039 23.2999C5.54059 23.2999 4.60039 24.2402 4.60039 25.4C4.60039 26.5597 5.54059 27.5 6.70039 27.5H19.3004C20.4602 27.5 21.4004 26.5597 21.4004 25.4C21.4004 24.2402 20.4602 23.2999 19.3004 23.2999H6.70039Z" />
		</symbol>
		<!--  -->
		<symbol id="home" width="100%" height="100%" viewBox="0 0 30 30">
			<path d="M16.2724 1.12731C15.5695 0.424362 14.4298 0.424362 13.7268 1.12731L1.12682 13.7273C0.423873 14.4302 0.423873 15.5699 1.12682 16.2729C1.82976 16.9758 2.96946 16.9758 3.6724 16.2729L4.19961 15.7457V27.6001C4.19961 28.5942 5.0055 29.4001 5.99961 29.4001H9.59961C10.5937 29.4001 11.3996 28.5942 11.3996 27.6001V24.0001C11.3996 23.006 12.2055 22.2001 13.1996 22.2001H16.7996C17.7937 22.2001 18.5996 23.006 18.5996 24.0001V27.6001C18.5996 28.5942 19.4055 29.4001 20.3996 29.4001H23.9996C24.9937 29.4001 25.7996 28.5942 25.7996 27.6001V15.7457L26.3268 16.2729C27.0298 16.9758 28.1695 16.9758 28.8724 16.2729C29.5753 15.5699 29.5753 14.4302 28.8724 13.7273L16.2724 1.12731Z" />
		</symbol>
		<!--  -->
		<symbol id="square-field" width="100%" height="100%" viewBox="0 0 30 30">
			<path d="M7.95284 4.2001H6.08984C6.29732 3.18367 6.84961 2.27014 7.65323 1.61412C8.45685 0.958103 9.46246 0.599886 10.4998 0.600098H22.1998C24.1094 0.600098 25.9407 1.35867 27.291 2.70893C28.6413 4.05919 29.3998 5.89054 29.3998 7.8001V19.5001C29.4001 20.5375 29.0418 21.5431 28.3858 22.3467C27.7298 23.1503 26.8163 23.7026 25.7998 23.9101V22.0471C26.3265 21.8609 26.7824 21.5159 27.1048 21.0598C27.4272 20.6036 27.6001 20.0587 27.5998 19.5001V7.8001C27.5998 6.36793 27.0309 4.99442 26.0182 3.98172C25.0055 2.96902 23.632 2.4001 22.1998 2.4001H10.4998C9.94126 2.3998 9.39633 2.57277 8.94016 2.89515C8.48399 3.21753 8.13904 3.67346 7.95284 4.2001Z" />
			<path d="M0.599609 10.5C0.599609 9.30653 1.07372 8.16193 1.91763 7.31802C2.76154 6.47411 3.90614 6 5.09961 6H19.4996C20.6931 6 21.8377 6.47411 22.6816 7.31802C23.5255 8.16193 23.9996 9.30653 23.9996 10.5V24.9C23.9996 26.0935 23.5255 27.2381 22.6816 28.082C21.8377 28.9259 20.6931 29.4 19.4996 29.4H5.09961C3.90614 29.4 2.76154 28.9259 1.91763 28.082C1.07372 27.2381 0.599609 26.0935 0.599609 24.9V10.5Z" />
		</symbol>
		<!--  -->
		<symbol id="clock" width="100%" height="100%" viewBox="0 0 30 30">
			<path fill-rule="evenodd" clip-rule="evenodd" d="M14.9996 29.4001C22.9525 29.4001 29.3996 22.953 29.3996 15.0001C29.3996 7.0472 22.9525 0.600098 14.9996 0.600098C7.04671 0.600098 0.599609 7.0472 0.599609 15.0001C0.599609 22.953 7.04671 29.4001 14.9996 29.4001ZM15.9996 7.8001C15.9996 7.24781 15.5519 6.8001 14.9996 6.8001C14.4473 6.8001 13.9996 7.24781 13.9996 7.8001V15.0001C13.9996 15.2653 14.105 15.5197 14.2925 15.7072L19.3837 20.7984C19.7742 21.1889 20.4074 21.1889 20.7979 20.7984C21.1884 20.4078 21.1884 19.7747 20.7979 19.3842L15.9996 14.5859V7.8001Z" />
		</symbol>
		<!--  -->
		<symbol id="youtube" width="100%" height="100%" viewBox="0 0 32 28">
			<path d="M30.06 6.78579C29.7165 5.49243 28.7045 4.47382 27.4195 4.12814C25.0903 3.5 15.7507 3.5 15.7507 3.5C15.7507 3.5 6.4112 3.5 4.08201 4.12814C2.79702 4.47387 1.78497 5.49243 1.44148 6.78579C0.817383 9.13008 0.817383 14.0212 0.817383 14.0212C0.817383 14.0212 0.817383 18.9124 1.44148 21.2566C1.78497 22.55 2.79702 23.5262 4.08201 23.8719C6.4112 24.5 15.7507 24.5 15.7507 24.5C15.7507 24.5 25.0903 24.5 27.4195 23.8719C28.7045 23.5262 29.7165 22.55 30.06 21.2566C30.6841 18.9124 30.6841 14.0212 30.6841 14.0212C30.6841 14.0212 30.6841 9.13008 30.06 6.78579ZM12.6962 18.462V9.58043L20.5022 14.0213L12.6962 18.462Z" />
		</symbol>
		<!--  -->
	</defs>
</svg>
